<?xml version="1.0" standalone="no"?>
<svg xmlns="http://www.w3.org/2000/svg" width="500" height="500"><defs><clipPath id="clip-path-dot-color"><path d="M 29 101v 9h 4.5a 4.5 4.5, 0, 0, 0, 0 -9" transform="rotate(-90,33.5,105.5)"/><path d="M 29 110v 9h 9v -4.5a 4.5 4.5, 0, 0, 0, -4.5 -4.5" transform="rotate(180,33.5,114.5)"/><path d="M 29 137v 9h 4.5a 4.5 4.5, 0, 0, 0, 0 -9" transform="rotate(-90,33.5,141.5)"/><path d="M 29 146v 9h 9v -4.5a 4.5 4.5, 0, 0, 0, -4.5 -4.5" transform="rotate(180,33.5,150.5)"/><circle cx="33.5" cy="177.5" r="4.5" transform="rotate(0,33.5,177.5)"/><path d="M 29 191v 9h 4.5a 4.5 4.5, 0, 0, 0, 0 -9" transform="rotate(-90,33.5,195.5)"/><path d="M 29 200v 9h 4.5a 4.5 4.5, 0, 0, 0, 0 -9" transform="rotate(90,33.5,204.5)"/><path d="M 29 227v 9h 4.5a 4.5 4.5, 0, 0, 0, 0 -9" transform="rotate(-90,33.5,231.5)"/><rect x="29" y="236" width="9" height="9" transform="rotate(0,33.5,240.5)"/><rect x="29" y="245" width="9" height="9" transform="rotate(0,33.5,249.5)"/><rect x="29" y="254" width="9" height="9" transform="rotate(0,33.5,258.5)"/><path d="M 29 263v 9h 4.5a 4.5 4.5, 0, 0, 0, 0 -9" transform="rotate(90,33.5,267.5)"/><path d="M 29 290v 9h 4.5a 4.5 4.5, 0, 0, 0, 0 -9" transform="rotate(-90,33.5,294.5)"/><path d="M 29 299v 9h 9v -4.5a 4.5 4.5, 0, 0, 0, -4.5 -4.5" transform="rotate(180,33.5,303.5)"/><circle cx="33.5" cy="366.5" r="4.5" transform="rotate(0,33.5,366.5)"/><path d="M 29 389v 9h 4.5a 4.5 4.5, 0, 0, 0, 0 -9" transform="rotate(180,33.5,393.5)"/><rect x="38" y="110" width="9" height="9" transform="rotate(0,42.5,114.5)"/><rect x="38" y="146" width="9" height="9" transform="rotate(0,42.5,150.5)"/><path d="M 38 155v 9h 9v -4.5a 4.5 4.5, 0, 0, 0, -4.5 -4.5" transform="rotate(180,42.5,159.5)"/><path d="M 38 209v 9h 9v -4.5a 4.5 4.5, 0, 0, 0, -4.5 -4.5" transform="rotate(-90,42.5,213.5)"/><path d="M 38 218v 9h 4.5a 4.5 4.5, 0, 0, 0, 0 -9" transform="rotate(90,42.5,222.5)"/><rect x="38" y="245" width="9" height="9" transform="rotate(0,42.5,249.5)"/><rect x="38" y="254" width="9" height="9" transform="rotate(0,42.5,258.5)"/><path d="M 38 281v 9h 4.5a 4.5 4.5, 0, 0, 0, 0 -9" transform="rotate(180,42.5,285.5)"/><path d="M 38 299v 9h 9v -4.5a 4.5 4.5, 0, 0, 0, -4.5 -4.5" transform="rotate(0,42.5,303.5)"/><path d="M 38 308v 9h 4.5a 4.5 4.5, 0, 0, 0, 0 -9" transform="rotate(90,42.5,312.5)"/><path d="M 38 326v 9h 9v -4.5a 4.5 4.5, 0, 0, 0, -4.5 -4.5" transform="rotate(-90,42.5,330.5)"/><path d="M 38 335v 9h 4.5a 4.5 4.5, 0, 0, 0, 0 -9" transform="rotate(90,42.5,339.5)"/><path d="M 38 371v 9h 4.5a 4.5 4.5, 0, 0, 0, 0 -9" transform="rotate(-90,42.5,375.5)"/><rect x="38" y="380" width="9" height="9" transform="rotate(0,42.5,384.5)"/><rect x="38" y="389" width="9" height="9" transform="rotate(0,42.5,393.5)"/><path d="M 47 110v 9h 4.5a 4.5 4.5, 0, 0, 0, 0 -9" transform="rotate(0,51.5,114.5)"/><circle cx="51.5" cy="132.5" r="4.5" transform="rotate(0,51.5,132.5)"/><rect x="47" y="146" width="9" height="9" transform="rotate(0,51.5,150.5)"/><rect x="47" y="155" width="9" height="9" transform="rotate(0,51.5,159.5)"/><rect x="47" y="164" width="9" height="9" transform="rotate(0,51.5,168.5)"/><rect x="47" y="173" width="9" height="9" transform="rotate(0,51.5,177.5)"/><path d="M 47 182v 9h 9v -4.5a 4.5 4.5, 0, 0, 0, -4.5 -4.5" transform="rotate(180,51.5,186.5)"/><path d="M 47 200v 9h 9v -4.5a 4.5 4.5, 0, 0, 0, -4.5 -4.5" transform="rotate(-90,51.5,204.5)"/><rect x="47" y="209" width="9" height="9" transform="rotate(0,51.5,213.5)"/><path d="M 47 236v 9h 4.5a 4.5 4.5, 0, 0, 0, 0 -9" transform="rotate(-90,51.5,240.5)"/><rect x="47" y="245" width="9" height="9" transform="rotate(0,51.5,249.5)"/><path d="M 47 254v 9h 9v -4.5a 4.5 4.5, 0, 0, 0, -4.5 -4.5" transform="rotate(90,51.5,258.5)"/><path d="M 47 272v 9h 4.5a 4.5 4.5, 0, 0, 0, 0 -9" transform="rotate(-90,51.5,276.5)"/><rect x="47" y="281" width="9" height="9" transform="rotate(0,51.5,285.5)"/><path d="M 47 290v 9h 9v -4.5a 4.5 4.5, 0, 0, 0, -4.5 -4.5" transform="rotate(180,51.5,294.5)"/><path d="M 47 317v 9h 4.5a 4.5 4.5, 0, 0, 0, 0 -9" transform="rotate(-90,51.5,321.5)"/><path d="M 47 326v 9h 9v -4.5a 4.5 4.5, 0, 0, 0, -4.5 -4.5" transform="rotate(90,51.5,330.5)"/><path d="M 47 344v 9h 4.5a 4.5 4.5, 0, 0, 0, 0 -9" transform="rotate(180,51.5,348.5)"/><rect x="47" y="380" width="9" height="9" transform="rotate(0,51.5,384.5)"/><path d="M 47 389v 9h 9v -4.5a 4.5 4.5, 0, 0, 0, -4.5 -4.5" transform="rotate(90,51.5,393.5)"/><path d="M 56 137v 9h 9v -4.5a 4.5 4.5, 0, 0, 0, -4.5 -4.5" transform="rotate(-90,60.5,141.5)"/><path d="M 56 146v 9h 9v -4.5a 4.5 4.5, 0, 0, 0, -4.5 -4.5" transform="rotate(90,60.5,150.5)"/><rect x="56" y="164" width="9" height="9" transform="rotate(0,60.5,168.5)"/><rect x="56" y="173" width="9" height="9" transform="rotate(0,60.5,177.5)"/><rect x="56" y="182" width="9" height="9" transform="rotate(0,60.5,186.5)"/><rect x="56" y="191" width="9" height="9" transform="rotate(0,60.5,195.5)"/><rect x="56" y="200" width="9" height="9" transform="rotate(0,60.5,204.5)"/><path d="M 56 209v 9h 9v -4.5a 4.5 4.5, 0, 0, 0, -4.5 -4.5" transform="rotate(90,60.5,213.5)"/><path d="M 56 227v 9h 4.5a 4.5 4.5, 0, 0, 0, 0 -9" transform="rotate(180,60.5,231.5)"/><rect x="56" y="245" width="9" height="9" transform="rotate(0,60.5,249.5)"/><rect x="56" y="281" width="9" height="9" transform="rotate(0,60.5,285.5)"/><rect x="56" y="290" width="9" height="9" transform="rotate(0,60.5,294.5)"/><rect x="56" y="344" width="9" height="9" transform="rotate(0,60.5,348.5)"/><rect x="56" y="353" width="9" height="9" transform="rotate(0,60.5,357.5)"/><path d="M 56 362v 9h 9v -4.5a 4.5 4.5, 0, 0, 0, -4.5 -4.5" transform="rotate(180,60.5,366.5)"/><path d="M 56 380v 9h 4.5a 4.5 4.5, 0, 0, 0, 0 -9" transform="rotate(0,60.5,384.5)"/><path d="M 65 101v 9h 9v -4.5a 4.5 4.5, 0, 0, 0, -4.5 -4.5" transform="rotate(-90,69.5,105.5)"/><rect x="65" y="110" width="9" height="9" transform="rotate(0,69.5,114.5)"/><rect x="65" y="119" width="9" height="9" transform="rotate(0,69.5,123.5)"/><rect x="65" y="128" width="9" height="9" transform="rotate(0,69.5,132.5)"/><rect x="65" y="137" width="9" height="9" transform="rotate(0,69.5,141.5)"/><path d="M 65 164v 9h 9v -4.5a 4.5 4.5, 0, 0, 0, -4.5 -4.5" transform="rotate(0,69.5,168.5)"/><rect x="65" y="173" width="9" height="9" transform="rotate(0,69.5,177.5)"/><rect x="65" y="182" width="9" height="9" transform="rotate(0,69.5,186.5)"/><path d="M 65 191v 9h 9v -4.5a 4.5 4.5, 0, 0, 0, -4.5 -4.5" transform="rotate(90,69.5,195.5)"/><rect x="65" y="227" width="9" height="9" transform="rotate(0,69.5,231.5)"/><rect x="65" y="236" width="9" height="9" transform="rotate(0,69.5,240.5)"/><rect x="65" y="245" width="9" height="9" transform="rotate(0,69.5,249.5)"/><rect x="65" y="254" width="9" height="9" transform="rotate(0,69.5,258.5)"/><path d="M 65 263v 9h 9v -4.5a 4.5 4.5, 0, 0, 0, -4.5 -4.5" transform="rotate(180,69.5,267.5)"/><path d="M 65 281v 9h 9v -4.5a 4.5 4.5, 0, 0, 0, -4.5 -4.5" transform="rotate(0,69.5,285.5)"/><rect x="65" y="290" width="9" height="9" transform="rotate(0,69.5,294.5)"/><path d="M 65 299v 9h 4.5a 4.5 4.5, 0, 0, 0, 0 -9" transform="rotate(90,69.5,303.5)"/><circle cx="69.5" cy="321.5" r="4.5" transform="rotate(0,69.5,321.5)"/><path d="M 65 344v 9h 9v -4.5a 4.5 4.5, 0, 0, 0, -4.5 -4.5" transform="rotate(0,69.5,348.5)"/><rect x="65" y="353" width="9" height="9" transform="rotate(0,69.5,357.5)"/><path d="M 65 362v 9h 9v -4.5a 4.5 4.5, 0, 0, 0, -4.5 -4.5" transform="rotate(90,69.5,366.5)"/><rect x="74" y="101" width="9" height="9" transform="rotate(0,78.5,105.5)"/><path d="M 74 128v 9h 9v -4.5a 4.5 4.5, 0, 0, 0, -4.5 -4.5" transform="rotate(0,78.5,132.5)"/><rect x="74" y="137" width="9" height="9" transform="rotate(0,78.5,141.5)"/><path d="M 74 146v 9h 4.5a 4.5 4.5, 0, 0, 0, 0 -9" transform="rotate(90,78.5,150.5)"/><path d="M 74 182v 9h 4.5a 4.5 4.5, 0, 0, 0, 0 -9" transform="rotate(0,78.5,186.5)"/><circle cx="78.5" cy="204.5" r="4.5" transform="rotate(0,78.5,204.5)"/><rect x="74" y="227" width="9" height="9" transform="rotate(0,78.5,231.5)"/><rect x="74" y="263" width="9" height="9" transform="rotate(0,78.5,267.5)"/><path d="M 74 272v 9h 4.5a 4.5 4.5, 0, 0, 0, 0 -9" transform="rotate(90,78.5,276.5)"/><path d="M 74 335v 9h 4.5a 4.5 4.5, 0, 0, 0, 0 -9" transform="rotate(180,78.5,339.5)"/><path d="M 74 371v 9h 4.5a 4.5 4.5, 0, 0, 0, 0 -9" transform="rotate(180,78.5,375.5)"/><path d="M 83 101v 9h 4.5a 4.5 4.5, 0, 0, 0, 0 -9" transform="rotate(0,87.5,105.5)"/><circle cx="87.5" cy="123.5" r="4.5" transform="rotate(0,87.5,123.5)"/><path d="M 83 137v 9h 4.5a 4.5 4.5, 0, 0, 0, 0 -9" transform="rotate(0,87.5,141.5)"/><circle cx="87.5" cy="159.5" r="4.5" transform="rotate(0,87.5,159.5)"/><path d="M 83 173v 9h 4.5a 4.5 4.5, 0, 0, 0, 0 -9" transform="rotate(180,87.5,177.5)"/><circle cx="87.5" cy="195.5" r="4.5" transform="rotate(0,87.5,195.5)"/><path d="M 83 209v 9h 4.5a 4.5 4.5, 0, 0, 0, 0 -9" transform="rotate(180,87.5,213.5)"/><rect x="83" y="227" width="9" height="9" transform="rotate(0,87.5,231.5)"/><circle cx="87.5" cy="249.5" r="4.5" transform="rotate(0,87.5,249.5)"/><rect x="83" y="263" width="9" height="9" transform="rotate(0,87.5,267.5)"/><circle cx="87.5" cy="285.5" r="4.5" transform="rotate(0,87.5,285.5)"/><path d="M 83 299v 9h 4.5a 4.5 4.5, 0, 0, 0, 0 -9" transform="rotate(180,87.5,303.5)"/><circle cx="87.5" cy="321.5" r="4.5" transform="rotate(0,87.5,321.5)"/><path d="M 83 335v 9h 4.5a 4.5 4.5, 0, 0, 0, 0 -9" transform="rotate(0,87.5,339.5)"/><path d="M 83 353v 9h 4.5a 4.5 4.5, 0, 0, 0, 0 -9" transform="rotate(180,87.5,357.5)"/><path d="M 83 371v 9h 4.5a 4.5 4.5, 0, 0, 0, 0 -9" transform="rotate(0,87.5,375.5)"/><circle cx="87.5" cy="393.5" r="4.5" transform="rotate(0,87.5,393.5)"/><path d="M 92 164v 9h 4.5a 4.5 4.5, 0, 0, 0, 0 -9" transform="rotate(-90,96.5,168.5)"/><rect x="92" y="173" width="9" height="9" transform="rotate(0,96.5,177.5)"/><path d="M 92 182v 9h 4.5a 4.5 4.5, 0, 0, 0, 0 -9" transform="rotate(90,96.5,186.5)"/><path d="M 92 200v 9h 9v -4.5a 4.5 4.5, 0, 0, 0, -4.5 -4.5" transform="rotate(-90,96.5,204.5)"/><rect x="92" y="209" width="9" height="9" transform="rotate(0,96.5,213.5)"/><rect x="92" y="227" width="9" height="9" transform="rotate(0,96.5,231.5)"/><rect x="92" y="263" width="9" height="9" transform="rotate(0,96.5,267.5)"/><path d="M 92 272v 9h 9v -4.5a 4.5 4.5, 0, 0, 0, -4.5 -4.5" transform="rotate(180,96.5,276.5)"/><rect x="92" y="299" width="9" height="9" transform="rotate(0,96.5,303.5)"/><path d="M 92 308v 9h 4.5a 4.5 4.5, 0, 0, 0, 0 -9" transform="rotate(90,96.5,312.5)"/><circle cx="96.5" cy="330.5" r="4.5" transform="rotate(0,96.5,330.5)"/><path d="M 92 344v 9h 4.5a 4.5 4.5, 0, 0, 0, 0 -9" transform="rotate(-90,96.5,348.5)"/><rect x="92" y="353" width="9" height="9" transform="rotate(0,96.5,357.5)"/><path d="M 92 362v 9h 9v -4.5a 4.5 4.5, 0, 0, 0, -4.5 -4.5" transform="rotate(180,96.5,366.5)"/><circle cx="96.5" cy="384.5" r="4.5" transform="rotate(0,96.5,384.5)"/><path d="M 101 38v 9h 4.5a 4.5 4.5, 0, 0, 0, 0 -9" transform="rotate(-90,105.5,42.5)"/><rect x="101" y="47" width="9" height="9" transform="rotate(0,105.5,51.5)"/><rect x="101" y="56" width="9" height="9" transform="rotate(0,105.5,60.5)"/><rect x="101" y="65" width="9" height="9" transform="rotate(0,105.5,69.5)"/><rect x="101" y="74" width="9" height="9" transform="rotate(0,105.5,78.5)"/><rect x="101" y="83" width="9" height="9" transform="rotate(0,105.5,87.5)"/><path d="M 101 92v 9h 9v -4.5a 4.5 4.5, 0, 0, 0, -4.5 -4.5" transform="rotate(180,105.5,96.5)"/><path d="M 101 110v 9h 4.5a 4.5 4.5, 0, 0, 0, 0 -9" transform="rotate(-90,105.5,114.5)"/><path d="M 101 119v 9h 9v -4.5a 4.5 4.5, 0, 0, 0, -4.5 -4.5" transform="rotate(180,105.5,123.5)"/><path d="M 101 146v 9h 9v -4.5a 4.5 4.5, 0, 0, 0, -4.5 -4.5" transform="rotate(-90,105.5,150.5)"/><path d="M 101 155v 9h 9v -4.5a 4.5 4.5, 0, 0, 0, -4.5 -4.5" transform="rotate(180,105.5,159.5)"/><rect x="101" y="173" width="9" height="9" transform="rotate(0,105.5,177.5)"/><path d="M 101 191v 9h 4.5a 4.5 4.5, 0, 0, 0, 0 -9" transform="rotate(-90,105.5,195.5)"/><rect x="101" y="200" width="9" height="9" transform="rotate(0,105.5,204.5)"/><path d="M 101 209v 9h 9v -4.5a 4.5 4.5, 0, 0, 0, -4.5 -4.5" transform="rotate(90,105.5,213.5)"/><rect x="101" y="227" width="9" height="9" transform="rotate(0,105.5,231.5)"/><rect x="101" y="236" width="9" height="9" transform="rotate(0,105.5,240.5)"/><rect x="101" y="245" width="9" height="9" transform="rotate(0,105.5,249.5)"/><rect x="101" y="254" width="9" height="9" transform="rotate(0,105.5,258.5)"/><rect x="101" y="263" width="9" height="9" transform="rotate(0,105.5,267.5)"/><rect x="101" y="272" width="9" height="9" transform="rotate(0,105.5,276.5)"/><path d="M 101 290v 9h 9v -4.5a 4.5 4.5, 0, 0, 0, -4.5 -4.5" transform="rotate(-90,105.5,294.5)"/><rect x="101" y="299" width="9" height="9" transform="rotate(0,105.5,303.5)"/><rect x="101" y="353" width="9" height="9" transform="rotate(0,105.5,357.5)"/><rect x="101" y="362" width="9" height="9" transform="rotate(0,105.5,366.5)"/><path d="M 101 371v 9h 4.5a 4.5 4.5, 0, 0, 0, 0 -9" transform="rotate(90,105.5,375.5)"/><circle cx="105.5" cy="393.5" r="4.5" transform="rotate(0,105.5,393.5)"/><path d="M 101 416v 9h 9v -4.5a 4.5 4.5, 0, 0, 0, -4.5 -4.5" transform="rotate(-90,105.5,420.5)"/><path d="M 101 425v 9h 9v -4.5a 4.5 4.5, 0, 0, 0, -4.5 -4.5" transform="rotate(180,105.5,429.5)"/><circle cx="105.5" cy="465.5" r="4.5" transform="rotate(0,105.5,465.5)"/><rect x="110" y="47" width="9" height="9" transform="rotate(0,114.5,51.5)"/><rect x="110" y="56" width="9" height="9" transform="rotate(0,114.5,60.5)"/><rect x="110" y="74" width="9" height="9" transform="rotate(0,114.5,78.5)"/><path d="M 110 92v 9h 4.5a 4.5 4.5, 0, 0, 0, 0 -9" transform="rotate(0,114.5,96.5)"/><rect x="110" y="119" width="9" height="9" transform="rotate(0,114.5,123.5)"/><path d="M 110 128v 9h 9v -4.5a 4.5 4.5, 0, 0, 0, -4.5 -4.5" transform="rotate(180,114.5,132.5)"/><path d="M 110 146v 9h 9v -4.5a 4.5 4.5, 0, 0, 0, -4.5 -4.5" transform="rotate(0,114.5,150.5)"/><rect x="110" y="155" width="9" height="9" transform="rotate(0,114.5,159.5)"/><path d="M 110 173v 9h 4.5a 4.5 4.5, 0, 0, 0, 0 -9" transform="rotate(0,114.5,177.5)"/><path d="M 110 218v 9h 4.5a 4.5 4.5, 0, 0, 0, 0 -9" transform="rotate(-90,114.5,222.5)"/><path d="M 110 227v 9h 9v -4.5a 4.5 4.5, 0, 0, 0, -4.5 -4.5" transform="rotate(90,114.5,231.5)"/><rect x="110" y="245" width="9" height="9" transform="rotate(0,114.5,249.5)"/><path d="M 110 254v 9h 9v -4.5a 4.5 4.5, 0, 0, 0, -4.5 -4.5" transform="rotate(90,114.5,258.5)"/><path d="M 110 272v 9h 4.5a 4.5 4.5, 0, 0, 0, 0 -9" transform="rotate(0,114.5,276.5)"/><path d="M 110 290v 9h 9v -4.5a 4.5 4.5, 0, 0, 0, -4.5 -4.5" transform="rotate(0,114.5,294.5)"/><rect x="110" y="299" width="9" height="9" transform="rotate(0,114.5,303.5)"/><path d="M 110 308v 9h 4.5a 4.5 4.5, 0, 0, 0, 0 -9" transform="rotate(90,114.5,312.5)"/><path d="M 110 344v 9h 4.5a 4.5 4.5, 0, 0, 0, 0 -9" transform="rotate(-90,114.5,348.5)"/><rect x="110" y="353" width="9" height="9" transform="rotate(0,114.5,357.5)"/><path d="M 110 362v 9h 9v -4.5a 4.5 4.5, 0, 0, 0, -4.5 -4.5" transform="rotate(90,114.5,366.5)"/><path d="M 110 398v 9h 4.5a 4.5 4.5, 0, 0, 0, 0 -9" transform="rotate(-90,114.5,402.5)"/><rect x="110" y="407" width="9" height="9" transform="rotate(0,114.5,411.5)"/><rect x="110" y="416" width="9" height="9" transform="rotate(0,114.5,420.5)"/><rect x="110" y="425" width="9" height="9" transform="rotate(0,114.5,429.5)"/><path d="M 110 443v 9h 4.5a 4.5 4.5, 0, 0, 0, 0 -9" transform="rotate(-90,114.5,447.5)"/><path d="M 110 452v 9h 9v -4.5a 4.5 4.5, 0, 0, 0, -4.5 -4.5" transform="rotate(180,114.5,456.5)"/><circle cx="123.5" cy="33.5" r="4.5" transform="rotate(0,123.5,33.5)"/><path d="M 119 47v 9h 9v -4.5a 4.5 4.5, 0, 0, 0, -4.5 -4.5" transform="rotate(0,123.5,51.5)"/><rect x="119" y="56" width="9" height="9" transform="rotate(0,123.5,60.5)"/><rect x="119" y="74" width="9" height="9" transform="rotate(0,123.5,78.5)"/><path d="M 119 83v 9h 4.5a 4.5 4.5, 0, 0, 0, 0 -9" transform="rotate(90,123.5,87.5)"/><path d="M 119 110v 9h 9v -4.5a 4.5 4.5, 0, 0, 0, -4.5 -4.5" transform="rotate(-90,123.5,114.5)"/><rect x="119" y="119" width="9" height="9" transform="rotate(0,123.5,123.5)"/><rect x="119" y="128" width="9" height="9" transform="rotate(0,123.5,132.5)"/><path d="M 119 137v 9h 4.5a 4.5 4.5, 0, 0, 0, 0 -9" transform="rotate(90,123.5,141.5)"/><rect x="119" y="155" width="9" height="9" transform="rotate(0,123.5,159.5)"/><path d="M 119 164v 9h 9v -4.5a 4.5 4.5, 0, 0, 0, -4.5 -4.5" transform="rotate(180,123.5,168.5)"/><path d="M 119 200v 9h 9v -4.5a 4.5 4.5, 0, 0, 0, -4.5 -4.5" transform="rotate(-90,123.5,204.5)"/><path d="M 119 209v 9h 4.5a 4.5 4.5, 0, 0, 0, 0 -9" transform="rotate(90,123.5,213.5)"/><path d="M 119 236v 9h 4.5a 4.5 4.5, 0, 0, 0, 0 -9" transform="rotate(-90,123.5,240.5)"/><path d="M 119 245v 9h 9v -4.5a 4.5 4.5, 0, 0, 0, -4.5 -4.5" transform="rotate(90,123.5,249.5)"/><path d="M 119 326v 9h 4.5a 4.5 4.5, 0, 0, 0, 0 -9" transform="rotate(-90,123.5,330.5)"/><path d="M 119 335v 9h 4.5a 4.5 4.5, 0, 0, 0, 0 -9" transform="rotate(90,123.5,339.5)"/><path d="M 119 353v 9h 4.5a 4.5 4.5, 0, 0, 0, 0 -9" transform="rotate(0,123.5,357.5)"/><circle cx="123.5" cy="375.5" r="4.5" transform="rotate(0,123.5,375.5)"/><path d="M 119 389v 9h 4.5a 4.5 4.5, 0, 0, 0, 0 -9" transform="rotate(180,123.5,393.5)"/><rect x="119" y="416" width="9" height="9" transform="rotate(0,123.5,420.5)"/><rect x="119" y="425" width="9" height="9" transform="rotate(0,123.5,429.5)"/><path d="M 119 434v 9h 4.5a 4.5 4.5, 0, 0, 0, 0 -9" transform="rotate(90,123.5,438.5)"/><rect x="119" y="452" width="9" height="9" transform="rotate(0,123.5,456.5)"/><path d="M 119 461v 9h 9v -4.5a 4.5 4.5, 0, 0, 0, -4.5 -4.5" transform="rotate(180,123.5,465.5)"/><circle cx="132.5" cy="42.5" r="4.5" transform="rotate(0,132.5,42.5)"/><path d="M 128 56v 9h 4.5a 4.5 4.5, 0, 0, 0, 0 -9" transform="rotate(0,132.5,60.5)"/><rect x="128" y="74" width="9" height="9" transform="rotate(0,132.5,78.5)"/><path d="M 128 101v 9h 9v -4.5a 4.5 4.5, 0, 0, 0, -4.5 -4.5" transform="rotate(-90,132.5,105.5)"/><path d="M 128 110v 9h 9v -4.5a 4.5 4.5, 0, 0, 0, -4.5 -4.5" transform="rotate(90,132.5,114.5)"/><rect x="128" y="155" width="9" height="9" transform="rotate(0,132.5,159.5)"/><rect x="128" y="164" width="9" height="9" transform="rotate(0,132.5,168.5)"/><path d="M 128 173v 9h 4.5a 4.5 4.5, 0, 0, 0, 0 -9" transform="rotate(90,132.5,177.5)"/><path d="M 128 200v 9h 4.5a 4.5 4.5, 0, 0, 0, 0 -9" transform="rotate(0,132.5,204.5)"/><path d="M 128 263v 9h 4.5a 4.5 4.5, 0, 0, 0, 0 -9" transform="rotate(180,132.5,267.5)"/><path d="M 128 290v 9h 4.5a 4.5 4.5, 0, 0, 0, 0 -9" transform="rotate(180,132.5,294.5)"/><circle cx="132.5" cy="321.5" r="4.5" transform="rotate(0,132.5,321.5)"/><path d="M 128 344v 9h 4.5a 4.5 4.5, 0, 0, 0, 0 -9" transform="rotate(180,132.5,348.5)"/><path d="M 128 362v 9h 4.5a 4.5 4.5, 0, 0, 0, 0 -9" transform="rotate(180,132.5,366.5)"/><rect x="128" y="389" width="9" height="9" transform="rotate(0,132.5,393.5)"/><path d="M 128 398v 9h 4.5a 4.5 4.5, 0, 0, 0, 0 -9" transform="rotate(90,132.5,402.5)"/><rect x="128" y="416" width="9" height="9" transform="rotate(0,132.5,420.5)"/><path d="M 128 425v 9h 9v -4.5a 4.5 4.5, 0, 0, 0, -4.5 -4.5" transform="rotate(90,132.5,429.5)"/><rect x="128" y="452" width="9" height="9" transform="rotate(0,132.5,456.5)"/><rect x="128" y="461" width="9" height="9" transform="rotate(0,132.5,465.5)"/><path d="M 137 29v 9h 4.5a 4.5 4.5, 0, 0, 0, 0 -9" transform="rotate(180,141.5,33.5)"/><path d="M 137 65v 9h 4.5a 4.5 4.5, 0, 0, 0, 0 -9" transform="rotate(-90,141.5,69.5)"/><rect x="137" y="74" width="9" height="9" transform="rotate(0,141.5,78.5)"/><path d="M 137 83v 9h 4.5a 4.5 4.5, 0, 0, 0, 0 -9" transform="rotate(90,141.5,87.5)"/><path d="M 137 101v 9h 4.5a 4.5 4.5, 0, 0, 0, 0 -9" transform="rotate(0,141.5,105.5)"/><path d="M 137 119v 9h 4.5a 4.5 4.5, 0, 0, 0, 0 -9" transform="rotate(-90,141.5,123.5)"/><rect x="137" y="128" width="9" height="9" transform="rotate(0,141.5,132.5)"/><path d="M 137 137v 9h 4.5a 4.5 4.5, 0, 0, 0, 0 -9" transform="rotate(90,141.5,141.5)"/><path d="M 137 155v 9h 9v -4.5a 4.5 4.5, 0, 0, 0, -4.5 -4.5" transform="rotate(0,141.5,159.5)"/><path d="M 137 164v 9h 9v -4.5a 4.5 4.5, 0, 0, 0, -4.5 -4.5" transform="rotate(90,141.5,168.5)"/><path d="M 137 182v 9h 4.5a 4.5 4.5, 0, 0, 0, 0 -9" transform="rotate(180,141.5,186.5)"/><path d="M 137 254v 9h 9v -4.5a 4.5 4.5, 0, 0, 0, -4.5 -4.5" transform="rotate(-90,141.5,258.5)"/><rect x="137" y="263" width="9" height="9" transform="rotate(0,141.5,267.5)"/><rect x="137" y="272" width="9" height="9" transform="rotate(0,141.5,276.5)"/><rect x="137" y="281" width="9" height="9" transform="rotate(0,141.5,285.5)"/><rect x="137" y="290" width="9" height="9" transform="rotate(0,141.5,294.5)"/><rect x="137" y="299" width="9" height="9" transform="rotate(0,141.5,303.5)"/><path d="M 137 308v 9h 4.5a 4.5 4.5, 0, 0, 0, 0 -9" transform="rotate(90,141.5,312.5)"/><circle cx="141.5" cy="330.5" r="4.5" transform="rotate(0,141.5,330.5)"/><rect x="137" y="344" width="9" height="9" transform="rotate(0,141.5,348.5)"/><rect x="137" y="353" width="9" height="9" transform="rotate(0,141.5,357.5)"/><rect x="137" y="362" width="9" height="9" transform="rotate(0,141.5,366.5)"/><path d="M 137 380v 9h 9v -4.5a 4.5 4.5, 0, 0, 0, -4.5 -4.5" transform="rotate(-90,141.5,384.5)"/><path d="M 137 389v 9h 9v -4.5a 4.5 4.5, 0, 0, 0, -4.5 -4.5" transform="rotate(90,141.5,393.5)"/><rect x="137" y="416" width="9" height="9" transform="rotate(0,141.5,420.5)"/><path d="M 137 434v 9h 4.5a 4.5 4.5, 0, 0, 0, 0 -9" transform="rotate(-90,141.5,438.5)"/><rect x="137" y="443" width="9" height="9" transform="rotate(0,141.5,447.5)"/><rect x="137" y="452" width="9" height="9" transform="rotate(0,141.5,456.5)"/><path d="M 137 461v 9h 9v -4.5a 4.5 4.5, 0, 0, 0, -4.5 -4.5" transform="rotate(90,141.5,465.5)"/><path d="M 146 29v 9h 4.5a 4.5 4.5, 0, 0, 0, 0 -9" transform="rotate(0,150.5,33.5)"/><circle cx="150.5" cy="51.5" r="4.5" transform="rotate(0,150.5,51.5)"/><path d="M 146 92v 9h 4.5a 4.5 4.5, 0, 0, 0, 0 -9" transform="rotate(180,150.5,96.5)"/><circle cx="150.5" cy="114.5" r="4.5" transform="rotate(0,150.5,114.5)"/><path d="M 146 128v 9h 4.5a 4.5 4.5, 0, 0, 0, 0 -9" transform="rotate(0,150.5,132.5)"/><path d="M 146 173v 9h 9v -4.5a 4.5 4.5, 0, 0, 0, -4.5 -4.5" transform="rotate(-90,150.5,177.5)"/><path d="M 146 182v 9h 9v -4.5a 4.5 4.5, 0, 0, 0, -4.5 -4.5" transform="rotate(90,150.5,186.5)"/><path d="M 146 218v 9h 4.5a 4.5 4.5, 0, 0, 0, 0 -9" transform="rotate(-90,150.5,222.5)"/><rect x="146" y="227" width="9" height="9" transform="rotate(0,150.5,231.5)"/><path d="M 146 236v 9h 9v -4.5a 4.5 4.5, 0, 0, 0, -4.5 -4.5" transform="rotate(180,150.5,240.5)"/><path d="M 146 254v 9h 4.5a 4.5 4.5, 0, 0, 0, 0 -9" transform="rotate(0,150.5,258.5)"/><rect x="146" y="290" width="9" height="9" transform="rotate(0,150.5,294.5)"/><path d="M 146 299v 9h 9v -4.5a 4.5 4.5, 0, 0, 0, -4.5 -4.5" transform="rotate(90,150.5,303.5)"/><path d="M 146 317v 9h 4.5a 4.5 4.5, 0, 0, 0, 0 -9" transform="rotate(180,150.5,321.5)"/><rect x="146" y="344" width="9" height="9" transform="rotate(0,150.5,348.5)"/><rect x="146" y="353" width="9" height="9" transform="rotate(0,150.5,357.5)"/><rect x="146" y="362" width="9" height="9" transform="rotate(0,150.5,366.5)"/><rect x="146" y="380" width="9" height="9" transform="rotate(0,150.5,384.5)"/><path d="M 146 398v 9h 4.5a 4.5 4.5, 0, 0, 0, 0 -9" transform="rotate(-90,150.5,402.5)"/><rect x="146" y="407" width="9" height="9" transform="rotate(0,150.5,411.5)"/><rect x="146" y="416" width="9" height="9" transform="rotate(0,150.5,420.5)"/><rect x="146" y="443" width="9" height="9" transform="rotate(0,150.5,447.5)"/><path d="M 155 56v 9h 9v -4.5a 4.5 4.5, 0, 0, 0, -4.5 -4.5" transform="rotate(-90,159.5,60.5)"/><path d="M 155 65v 9h 4.5a 4.5 4.5, 0, 0, 0, 0 -9" transform="rotate(90,159.5,69.5)"/><path d="M 155 83v 9h 4.5a 4.5 4.5, 0, 0, 0, 0 -9" transform="rotate(-90,159.5,87.5)"/><rect x="155" y="92" width="9" height="9" transform="rotate(0,159.5,96.5)"/><path d="M 155 137v 9h 9v -4.5a 4.5 4.5, 0, 0, 0, -4.5 -4.5" transform="rotate(-90,159.5,141.5)"/><path d="M 155 146v 9h 4.5a 4.5 4.5, 0, 0, 0, 0 -9" transform="rotate(90,159.5,150.5)"/><rect x="155" y="173" width="9" height="9" transform="rotate(0,159.5,177.5)"/><path d="M 155 191v 9h 4.5a 4.5 4.5, 0, 0, 0, 0 -9" transform="rotate(-90,159.5,195.5)"/><path d="M 155 200v 9h 9v -4.5a 4.5 4.5, 0, 0, 0, -4.5 -4.5" transform="rotate(180,159.5,204.5)"/><rect x="155" y="227" width="9" height="9" transform="rotate(0,159.5,231.5)"/><path d="M 155 236v 9h 9v -4.5a 4.5 4.5, 0, 0, 0, -4.5 -4.5" transform="rotate(90,159.5,240.5)"/><path d="M 155 263v 9h 4.5a 4.5 4.5, 0, 0, 0, 0 -9" transform="rotate(180,159.5,267.5)"/><path d="M 155 281v 9h 4.5a 4.5 4.5, 0, 0, 0, 0 -9" transform="rotate(-90,159.5,285.5)"/><rect x="155" y="290" width="9" height="9" transform="rotate(0,159.5,294.5)"/><path d="M 155 308v 9h 4.5a 4.5 4.5, 0, 0, 0, 0 -9" transform="rotate(-90,159.5,312.5)"/><rect x="155" y="317" width="9" height="9" transform="rotate(0,159.5,321.5)"/><path d="M 155 335v 9h 9v -4.5a 4.5 4.5, 0, 0, 0, -4.5 -4.5" transform="rotate(-90,159.5,339.5)"/><rect x="155" y="344" width="9" height="9" transform="rotate(0,159.5,348.5)"/><rect x="155" y="353" width="9" height="9" transform="rotate(0,159.5,357.5)"/><rect x="155" y="362" width="9" height="9" transform="rotate(0,159.5,366.5)"/><rect x="155" y="371" width="9" height="9" transform="rotate(0,159.5,375.5)"/><rect x="155" y="380" width="9" height="9" transform="rotate(0,159.5,384.5)"/><path d="M 155 389v 9h 9v -4.5a 4.5 4.5, 0, 0, 0, -4.5 -4.5" transform="rotate(180,159.5,393.5)"/><path d="M 155 416v 9h 4.5a 4.5 4.5, 0, 0, 0, 0 -9" transform="rotate(0,159.5,420.5)"/><path d="M 155 434v 9h 4.5a 4.5 4.5, 0, 0, 0, 0 -9" transform="rotate(-90,159.5,438.5)"/><rect x="155" y="443" width="9" height="9" transform="rotate(0,159.5,447.5)"/><rect x="155" y="452" width="9" height="9" transform="rotate(0,159.5,456.5)"/><path d="M 155 461v 9h 4.5a 4.5 4.5, 0, 0, 0, 0 -9" transform="rotate(90,159.5,465.5)"/><rect x="164" y="56" width="9" height="9" transform="rotate(0,168.5,60.5)"/><path d="M 164 74v 9h 4.5a 4.5 4.5, 0, 0, 0, 0 -9" transform="rotate(180,168.5,78.5)"/><path d="M 164 92v 9h 9v -4.5a 4.5 4.5, 0, 0, 0, -4.5 -4.5" transform="rotate(0,168.5,96.5)"/><path d="M 164 101v 9h 4.5a 4.5 4.5, 0, 0, 0, 0 -9" transform="rotate(90,168.5,105.5)"/><rect x="164" y="137" width="9" height="9" transform="rotate(0,168.5,141.5)"/><path d="M 164 164v 9h 4.5a 4.5 4.5, 0, 0, 0, 0 -9" transform="rotate(-90,168.5,168.5)"/><rect x="164" y="173" width="9" height="9" transform="rotate(0,168.5,177.5)"/><rect x="164" y="200" width="9" height="9" transform="rotate(0,168.5,204.5)"/><path d="M 164 209v 9h 4.5a 4.5 4.5, 0, 0, 0, 0 -9" transform="rotate(90,168.5,213.5)"/><path d="M 164 227v 9h 4.5a 4.5 4.5, 0, 0, 0, 0 -9" transform="rotate(0,168.5,231.5)"/><path d="M 164 245v 9h 9v -4.5a 4.5 4.5, 0, 0, 0, -4.5 -4.5" transform="rotate(-90,168.5,249.5)"/><rect x="164" y="254" width="9" height="9" transform="rotate(0,168.5,258.5)"/><rect x="164" y="263" width="9" height="9" transform="rotate(0,168.5,267.5)"/><path d="M 164 272v 9h 4.5a 4.5 4.5, 0, 0, 0, 0 -9" transform="rotate(90,168.5,276.5)"/><path d="M 164 290v 9h 4.5a 4.5 4.5, 0, 0, 0, 0 -9" transform="rotate(0,168.5,294.5)"/><path d="M 164 317v 9h 4.5a 4.5 4.5, 0, 0, 0, 0 -9" transform="rotate(0,168.5,321.5)"/><rect x="164" y="335" width="9" height="9" transform="rotate(0,168.5,339.5)"/><path d="M 164 362v 9h 9v -4.5a 4.5 4.5, 0, 0, 0, -4.5 -4.5" transform="rotate(0,168.5,366.5)"/><rect x="164" y="371" width="9" height="9" transform="rotate(0,168.5,375.5)"/><rect x="164" y="380" width="9" height="9" transform="rotate(0,168.5,384.5)"/><path d="M 164 389v 9h 9v -4.5a 4.5 4.5, 0, 0, 0, -4.5 -4.5" transform="rotate(90,168.5,393.5)"/><path d="M 164 407v 9h 4.5a 4.5 4.5, 0, 0, 0, 0 -9" transform="rotate(180,168.5,411.5)"/><circle cx="168.5" cy="429.5" r="4.5" transform="rotate(0,168.5,429.5)"/><path d="M 164 443v 9h 4.5a 4.5 4.5, 0, 0, 0, 0 -9" transform="rotate(0,168.5,447.5)"/><path d="M 173 38v 9h 9v -4.5a 4.5 4.5, 0, 0, 0, -4.5 -4.5" transform="rotate(-90,177.5,42.5)"/><rect x="173" y="47" width="9" height="9" transform="rotate(0,177.5,51.5)"/><rect x="173" y="56" width="9" height="9" transform="rotate(0,177.5,60.5)"/><path d="M 173 74v 9h 9v -4.5a 4.5 4.5, 0, 0, 0, -4.5 -4.5" transform="rotate(0,177.5,78.5)"/><path d="M 173 83v 9h 4.5a 4.5 4.5, 0, 0, 0, 0 -9" transform="rotate(90,177.5,87.5)"/><path d="M 173 128v 9h 4.5a 4.5 4.5, 0, 0, 0, 0 -9" transform="rotate(-90,177.5,132.5)"/><rect x="173" y="137" width="9" height="9" transform="rotate(0,177.5,141.5)"/><path d="M 173 155v 9h 4.5a 4.5 4.5, 0, 0, 0, 0 -9" transform="rotate(180,177.5,159.5)"/><path d="M 173 173v 9h 9v -4.5a 4.5 4.5, 0, 0, 0, -4.5 -4.5" transform="rotate(0,177.5,177.5)"/><rect x="173" y="182" width="9" height="9" transform="rotate(0,177.5,186.5)"/><rect x="173" y="191" width="9" height="9" transform="rotate(0,177.5,195.5)"/><rect x="173" y="200" width="9" height="9" transform="rotate(0,177.5,204.5)"/><circle cx="177.5" cy="222.5" r="4.5" transform="rotate(0,177.5,222.5)"/><path d="M 173 236v 9h 9v -4.5a 4.5 4.5, 0, 0, 0, -4.5 -4.5" transform="rotate(-90,177.5,240.5)"/><rect x="173" y="245" width="9" height="9" transform="rotate(0,177.5,249.5)"/><rect x="173" y="263" width="9" height="9" transform="rotate(0,177.5,267.5)"/><circle cx="177.5" cy="312.5" r="4.5" transform="rotate(0,177.5,312.5)"/><path d="M 173 326v 9h 4.5a 4.5 4.5, 0, 0, 0, 0 -9" transform="rotate(-90,177.5,330.5)"/><rect x="173" y="335" width="9" height="9" transform="rotate(0,177.5,339.5)"/><rect x="173" y="344" width="9" height="9" transform="rotate(0,177.5,348.5)"/><path d="M 173 353v 9h 4.5a 4.5 4.5, 0, 0, 0, 0 -9" transform="rotate(90,177.5,357.5)"/><rect x="173" y="371" width="9" height="9" transform="rotate(0,177.5,375.5)"/><path d="M 173 398v 9h 4.5a 4.5 4.5, 0, 0, 0, 0 -9" transform="rotate(-90,177.5,402.5)"/><rect x="173" y="407" width="9" height="9" transform="rotate(0,177.5,411.5)"/><path d="M 173 416v 9h 9v -4.5a 4.5 4.5, 0, 0, 0, -4.5 -4.5" transform="rotate(180,177.5,420.5)"/><path d="M 173 434v 9h 4.5a 4.5 4.5, 0, 0, 0, 0 -9" transform="rotate(180,177.5,438.5)"/><circle cx="177.5" cy="456.5" r="4.5" transform="rotate(0,177.5,456.5)"/><path d="M 182 29v 9h 4.5a 4.5 4.5, 0, 0, 0, 0 -9" transform="rotate(-90,186.5,33.5)"/><rect x="182" y="38" width="9" height="9" transform="rotate(0,186.5,42.5)"/><rect x="182" y="56" width="9" height="9" transform="rotate(0,186.5,60.5)"/><path d="M 182 65v 9h 4.5a 4.5 4.5, 0, 0, 0, 0 -9" transform="rotate(90,186.5,69.5)"/><path d="M 182 101v 9h 4.5a 4.5 4.5, 0, 0, 0, 0 -9" transform="rotate(-90,186.5,105.5)"/><path d="M 182 110v 9h 4.5a 4.5 4.5, 0, 0, 0, 0 -9" transform="rotate(90,186.5,114.5)"/><rect x="182" y="137" width="9" height="9" transform="rotate(0,186.5,141.5)"/><rect x="182" y="146" width="9" height="9" transform="rotate(0,186.5,150.5)"/><rect x="182" y="155" width="9" height="9" transform="rotate(0,186.5,159.5)"/><path d="M 182 182v 9h 9v -4.5a 4.5 4.5, 0, 0, 0, -4.5 -4.5" transform="rotate(0,186.5,186.5)"/><rect x="182" y="191" width="9" height="9" transform="rotate(0,186.5,195.5)"/><rect x="182" y="200" width="9" height="9" transform="rotate(0,186.5,204.5)"/><path d="M 182 209v 9h 4.5a 4.5 4.5, 0, 0, 0, 0 -9" transform="rotate(90,186.5,213.5)"/><path d="M 182 227v 9h 9v -4.5a 4.5 4.5, 0, 0, 0, -4.5 -4.5" transform="rotate(-90,186.5,231.5)"/><rect x="182" y="236" width="9" height="9" transform="rotate(0,186.5,240.5)"/><rect x="182" y="245" width="9" height="9" transform="rotate(0,186.5,249.5)"/><rect x="182" y="263" width="9" height="9" transform="rotate(0,186.5,267.5)"/><circle cx="186.5" cy="294.5" r="4.5" transform="rotate(0,186.5,294.5)"/><path d="M 182 317v 9h 4.5a 4.5 4.5, 0, 0, 0, 0 -9" transform="rotate(180,186.5,321.5)"/><path d="M 182 335v 9h 9v -4.5a 4.5 4.5, 0, 0, 0, -4.5 -4.5" transform="rotate(0,186.5,339.5)"/><rect x="182" y="344" width="9" height="9" transform="rotate(0,186.5,348.5)"/><path d="M 182 362v 9h 4.5a 4.5 4.5, 0, 0, 0, 0 -9" transform="rotate(-90,186.5,366.5)"/><rect x="182" y="371" width="9" height="9" transform="rotate(0,186.5,375.5)"/><path d="M 182 380v 9h 4.5a 4.5 4.5, 0, 0, 0, 0 -9" transform="rotate(90,186.5,384.5)"/><rect x="182" y="407" width="9" height="9" transform="rotate(0,186.5,411.5)"/><path d="M 182 416v 9h 9v -4.5a 4.5 4.5, 0, 0, 0, -4.5 -4.5" transform="rotate(90,186.5,420.5)"/><rect x="182" y="434" width="9" height="9" transform="rotate(0,186.5,438.5)"/><path d="M 182 443v 9h 4.5a 4.5 4.5, 0, 0, 0, 0 -9" transform="rotate(90,186.5,447.5)"/><path d="M 191 38v 9h 4.5a 4.5 4.5, 0, 0, 0, 0 -9" transform="rotate(0,195.5,42.5)"/><path d="M 191 56v 9h 4.5a 4.5 4.5, 0, 0, 0, 0 -9" transform="rotate(0,195.5,60.5)"/><path d="M 191 74v 9h 9v -4.5a 4.5 4.5, 0, 0, 0, -4.5 -4.5" transform="rotate(-90,195.5,78.5)"/><rect x="191" y="83" width="9" height="9" transform="rotate(0,195.5,87.5)"/><path d="M 191 92v 9h 9v -4.5a 4.5 4.5, 0, 0, 0, -4.5 -4.5" transform="rotate(180,195.5,96.5)"/><circle cx="195.5" cy="123.5" r="4.5" transform="rotate(0,195.5,123.5)"/><path d="M 191 137v 9h 4.5a 4.5 4.5, 0, 0, 0, 0 -9" transform="rotate(0,195.5,141.5)"/><rect x="191" y="155" width="9" height="9" transform="rotate(0,195.5,159.5)"/><circle cx="195.5" cy="177.5" r="4.5" transform="rotate(0,195.5,177.5)"/><rect x="191" y="191" width="9" height="9" transform="rotate(0,195.5,195.5)"/><path d="M 191 227v 9h 4.5a 4.5 4.5, 0, 0, 0, 0 -9" transform="rotate(0,195.5,231.5)"/><path d="M 191 245v 9h 4.5a 4.5 4.5, 0, 0, 0, 0 -9" transform="rotate(0,195.5,249.5)"/><rect x="191" y="263" width="9" height="9" transform="rotate(0,195.5,267.5)"/><circle cx="195.5" cy="285.5" r="4.5" transform="rotate(0,195.5,285.5)"/><circle cx="195.5" cy="303.5" r="4.5" transform="rotate(0,195.5,303.5)"/><rect x="191" y="317" width="9" height="9" transform="rotate(0,195.5,321.5)"/><path d="M 191 326v 9h 4.5a 4.5 4.5, 0, 0, 0, 0 -9" transform="rotate(90,195.5,330.5)"/><path d="M 191 344v 9h 4.5a 4.5 4.5, 0, 0, 0, 0 -9" transform="rotate(0,195.5,348.5)"/><path d="M 191 398v 9h 4.5a 4.5 4.5, 0, 0, 0, 0 -9" transform="rotate(-90,195.5,402.5)"/><rect x="191" y="407" width="9" height="9" transform="rotate(0,195.5,411.5)"/><path d="M 191 434v 9h 4.5a 4.5 4.5, 0, 0, 0, 0 -9" transform="rotate(0,195.5,438.5)"/><path d="M 191 461v 9h 4.5a 4.5 4.5, 0, 0, 0, 0 -9" transform="rotate(180,195.5,465.5)"/><rect x="200" y="74" width="9" height="9" transform="rotate(0,204.5,78.5)"/><rect x="200" y="92" width="9" height="9" transform="rotate(0,204.5,96.5)"/><path d="M 200 101v 9h 9v -4.5a 4.5 4.5, 0, 0, 0, -4.5 -4.5" transform="rotate(180,204.5,105.5)"/><path d="M 200 155v 9h 9v -4.5a 4.5 4.5, 0, 0, 0, -4.5 -4.5" transform="rotate(0,204.5,159.5)"/><path d="M 200 164v 9h 9v -4.5a 4.5 4.5, 0, 0, 0, -4.5 -4.5" transform="rotate(180,204.5,168.5)"/><rect x="200" y="191" width="9" height="9" transform="rotate(0,204.5,195.5)"/><path d="M 200 200v 9h 4.5a 4.5 4.5, 0, 0, 0, 0 -9" transform="rotate(90,204.5,204.5)"/><circle cx="204.5" cy="222.5" r="4.5" transform="rotate(0,204.5,222.5)"/><circle cx="204.5" cy="240.5" r="4.5" transform="rotate(0,204.5,240.5)"/><path d="M 200 263v 9h 9v -4.5a 4.5 4.5, 0, 0, 0, -4.5 -4.5" transform="rotate(0,204.5,267.5)"/><path d="M 200 272v 9h 4.5a 4.5 4.5, 0, 0, 0, 0 -9" transform="rotate(90,204.5,276.5)"/><circle cx="204.5" cy="294.5" r="4.5" transform="rotate(0,204.5,294.5)"/><path d="M 200 317v 9h 4.5a 4.5 4.5, 0, 0, 0, 0 -9" transform="rotate(0,204.5,321.5)"/><path d="M 200 362v 9h 9v -4.5a 4.5 4.5, 0, 0, 0, -4.5 -4.5" transform="rotate(-90,204.5,366.5)"/><rect x="200" y="371" width="9" height="9" transform="rotate(0,204.5,375.5)"/><path d="M 200 380v 9h 9v -4.5a 4.5 4.5, 0, 0, 0, -4.5 -4.5" transform="rotate(180,204.5,384.5)"/><rect x="200" y="407" width="9" height="9" transform="rotate(0,204.5,411.5)"/><rect x="200" y="416" width="9" height="9" transform="rotate(0,204.5,420.5)"/><path d="M 200 425v 9h 4.5a 4.5 4.5, 0, 0, 0, 0 -9" transform="rotate(90,204.5,429.5)"/><path d="M 200 452v 9h 9v -4.5a 4.5 4.5, 0, 0, 0, -4.5 -4.5" transform="rotate(-90,204.5,456.5)"/><path d="M 200 461v 9h 9v -4.5a 4.5 4.5, 0, 0, 0, -4.5 -4.5" transform="rotate(90,204.5,465.5)"/><circle cx="213.5" cy="51.5" r="4.5" transform="rotate(0,213.5,51.5)"/><rect x="209" y="74" width="9" height="9" transform="rotate(0,213.5,78.5)"/><rect x="209" y="83" width="9" height="9" transform="rotate(0,213.5,87.5)"/><rect x="209" y="92" width="9" height="9" transform="rotate(0,213.5,96.5)"/><rect x="209" y="101" width="9" height="9" transform="rotate(0,213.5,105.5)"/><path d="M 209 110v 9h 9v -4.5a 4.5 4.5, 0, 0, 0, -4.5 -4.5" transform="rotate(180,213.5,114.5)"/><circle cx="213.5" cy="132.5" r="4.5" transform="rotate(0,213.5,132.5)"/><rect x="209" y="164" width="9" height="9" transform="rotate(0,213.5,168.5)"/><path d="M 209 173v 9h 9v -4.5a 4.5 4.5, 0, 0, 0, -4.5 -4.5" transform="rotate(180,213.5,177.5)"/><path d="M 209 191v 9h 4.5a 4.5 4.5, 0, 0, 0, 0 -9" transform="rotate(0,213.5,195.5)"/><path d="M 209 209v 9h 4.5a 4.5 4.5, 0, 0, 0, 0 -9" transform="rotate(180,213.5,213.5)"/><circle cx="213.5" cy="330.5" r="4.5" transform="rotate(0,213.5,330.5)"/><path d="M 209 344v 9h 9v -4.5a 4.5 4.5, 0, 0, 0, -4.5 -4.5" transform="rotate(-90,213.5,348.5)"/><rect x="209" y="353" width="9" height="9" transform="rotate(0,213.5,357.5)"/><rect x="209" y="362" width="9" height="9" transform="rotate(0,213.5,366.5)"/><rect x="209" y="371" width="9" height="9" transform="rotate(0,213.5,375.5)"/><rect x="209" y="380" width="9" height="9" transform="rotate(0,213.5,384.5)"/><path d="M 209 389v 9h 4.5a 4.5 4.5, 0, 0, 0, 0 -9" transform="rotate(90,213.5,393.5)"/><rect x="209" y="407" width="9" height="9" transform="rotate(0,213.5,411.5)"/><path d="M 209 416v 9h 9v -4.5a 4.5 4.5, 0, 0, 0, -4.5 -4.5" transform="rotate(90,213.5,420.5)"/><path d="M 209 443v 9h 9v -4.5a 4.5 4.5, 0, 0, 0, -4.5 -4.5" transform="rotate(-90,213.5,447.5)"/><path d="M 209 452v 9h 9v -4.5a 4.5 4.5, 0, 0, 0, -4.5 -4.5" transform="rotate(90,213.5,456.5)"/><path d="M 218 29v 9h 4.5a 4.5 4.5, 0, 0, 0, 0 -9" transform="rotate(180,222.5,33.5)"/><rect x="218" y="74" width="9" height="9" transform="rotate(0,222.5,78.5)"/><path d="M 218 110v 9h 9v -4.5a 4.5 4.5, 0, 0, 0, -4.5 -4.5" transform="rotate(0,222.5,114.5)"/><path d="M 218 119v 9h 9v -4.5a 4.5 4.5, 0, 0, 0, -4.5 -4.5" transform="rotate(180,222.5,123.5)"/><circle cx="222.5" cy="141.5" r="4.5" transform="rotate(0,222.5,141.5)"/><path d="M 218 155v 9h 9v -4.5a 4.5 4.5, 0, 0, 0, -4.5 -4.5" transform="rotate(-90,222.5,159.5)"/><rect x="218" y="164" width="9" height="9" transform="rotate(0,222.5,168.5)"/><rect x="218" y="173" width="9" height="9" transform="rotate(0,222.5,177.5)"/><path d="M 218 182v 9h 4.5a 4.5 4.5, 0, 0, 0, 0 -9" transform="rotate(90,222.5,186.5)"/><path d="M 218 200v 9h 4.5a 4.5 4.5, 0, 0, 0, 0 -9" transform="rotate(-90,222.5,204.5)"/><rect x="218" y="209" width="9" height="9" transform="rotate(0,222.5,213.5)"/><path d="M 218 218v 9h 4.5a 4.5 4.5, 0, 0, 0, 0 -9" transform="rotate(90,222.5,222.5)"/><path d="M 218 236v 9h 4.5a 4.5 4.5, 0, 0, 0, 0 -9" transform="rotate(180,222.5,240.5)"/><path d="M 218 254v 9h 4.5a 4.5 4.5, 0, 0, 0, 0 -9" transform="rotate(180,222.5,258.5)"/><path d="M 218 272v 9h 9v -4.5a 4.5 4.5, 0, 0, 0, -4.5 -4.5" transform="rotate(-90,222.5,276.5)"/><rect x="218" y="281" width="9" height="9" transform="rotate(0,222.5,285.5)"/><rect x="218" y="290" width="9" height="9" transform="rotate(0,222.5,294.5)"/><rect x="218" y="299" width="9" height="9" transform="rotate(0,222.5,303.5)"/><rect x="218" y="308" width="9" height="9" transform="rotate(0,222.5,312.5)"/><path d="M 218 317v 9h 4.5a 4.5 4.5, 0, 0, 0, 0 -9" transform="rotate(90,222.5,321.5)"/><rect x="218" y="344" width="9" height="9" transform="rotate(0,222.5,348.5)"/><rect x="218" y="353" width="9" height="9" transform="rotate(0,222.5,357.5)"/><path d="M 218 398v 9h 9v -4.5a 4.5 4.5, 0, 0, 0, -4.5 -4.5" transform="rotate(-90,222.5,402.5)"/><rect x="218" y="407" width="9" height="9" transform="rotate(0,222.5,411.5)"/><rect x="218" y="443" width="9" height="9" transform="rotate(0,222.5,447.5)"/><rect x="227" y="29" width="9" height="9" transform="rotate(0,231.5,33.5)"/><path d="M 227 47v 9h 4.5a 4.5 4.5, 0, 0, 0, 0 -9" transform="rotate(-90,231.5,51.5)"/><rect x="227" y="56" width="9" height="9" transform="rotate(0,231.5,60.5)"/><rect x="227" y="65" width="9" height="9" transform="rotate(0,231.5,69.5)"/><rect x="227" y="74" width="9" height="9" transform="rotate(0,231.5,78.5)"/><rect x="227" y="83" width="9" height="9" transform="rotate(0,231.5,87.5)"/><rect x="227" y="92" width="9" height="9" transform="rotate(0,231.5,96.5)"/><path d="M 227 101v 9h 9v -4.5a 4.5 4.5, 0, 0, 0, -4.5 -4.5" transform="rotate(180,231.5,105.5)"/><path d="M 227 119v 9h 9v -4.5a 4.5 4.5, 0, 0, 0, -4.5 -4.5" transform="rotate(0,231.5,123.5)"/><path d="M 227 128v 9h 4.5a 4.5 4.5, 0, 0, 0, 0 -9" transform="rotate(90,231.5,132.5)"/><rect x="227" y="155" width="9" height="9" transform="rotate(0,231.5,159.5)"/><path d="M 227 173v 9h 4.5a 4.5 4.5, 0, 0, 0, 0 -9" transform="rotate(0,231.5,177.5)"/><circle cx="231.5" cy="195.5" r="4.5" transform="rotate(0,231.5,195.5)"/><path d="M 227 209v 9h 4.5a 4.5 4.5, 0, 0, 0, 0 -9" transform="rotate(0,231.5,213.5)"/><path d="M 227 227v 9h 9v -4.5a 4.5 4.5, 0, 0, 0, -4.5 -4.5" transform="rotate(-90,231.5,231.5)"/><rect x="227" y="236" width="9" height="9" transform="rotate(0,231.5,240.5)"/><rect x="227" y="245" width="9" height="9" transform="rotate(0,231.5,249.5)"/><rect x="227" y="254" width="9" height="9" transform="rotate(0,231.5,258.5)"/><rect x="227" y="263" width="9" height="9" transform="rotate(0,231.5,267.5)"/><rect x="227" y="272" width="9" height="9" transform="rotate(0,231.5,276.5)"/><path d="M 227 281v 9h 9v -4.5a 4.5 4.5, 0, 0, 0, -4.5 -4.5" transform="rotate(90,231.5,285.5)"/><path d="M 227 326v 9h 9v -4.5a 4.5 4.5, 0, 0, 0, -4.5 -4.5" transform="rotate(-90,231.5,330.5)"/><rect x="227" y="335" width="9" height="9" transform="rotate(0,231.5,339.5)"/><rect x="227" y="344" width="9" height="9" transform="rotate(0,231.5,348.5)"/><rect x="227" y="353" width="9" height="9" transform="rotate(0,231.5,357.5)"/><path d="M 227 371v 9h 4.5a 4.5 4.5, 0, 0, 0, 0 -9" transform="rotate(-90,231.5,375.5)"/><rect x="227" y="380" width="9" height="9" transform="rotate(0,231.5,384.5)"/><rect x="227" y="389" width="9" height="9" transform="rotate(0,231.5,393.5)"/><rect x="227" y="398" width="9" height="9" transform="rotate(0,231.5,402.5)"/><rect x="227" y="407" width="9" height="9" transform="rotate(0,231.5,411.5)"/><rect x="227" y="416" width="9" height="9" transform="rotate(0,231.5,420.5)"/><path d="M 227 425v 9h 9v -4.5a 4.5 4.5, 0, 0, 0, -4.5 -4.5" transform="rotate(180,231.5,429.5)"/><path d="M 227 443v 9h 9v -4.5a 4.5 4.5, 0, 0, 0, -4.5 -4.5" transform="rotate(0,231.5,447.5)"/><rect x="227" y="452" width="9" height="9" transform="rotate(0,231.5,456.5)"/><path d="M 227 461v 9h 9v -4.5a 4.5 4.5, 0, 0, 0, -4.5 -4.5" transform="rotate(180,231.5,465.5)"/><path d="M 236 29v 9h 4.5a 4.5 4.5, 0, 0, 0, 0 -9" transform="rotate(0,240.5,33.5)"/><path d="M 236 56v 9h 9v -4.5a 4.5 4.5, 0, 0, 0, -4.5 -4.5" transform="rotate(0,240.5,60.5)"/><rect x="236" y="65" width="9" height="9" transform="rotate(0,240.5,69.5)"/><rect x="236" y="101" width="9" height="9" transform="rotate(0,240.5,105.5)"/><path d="M 236 110v 9h 9v -4.5a 4.5 4.5, 0, 0, 0, -4.5 -4.5" transform="rotate(180,240.5,114.5)"/><circle cx="240.5" cy="141.5" r="4.5" transform="rotate(0,240.5,141.5)"/><path d="M 236 155v 9h 9v -4.5a 4.5 4.5, 0, 0, 0, -4.5 -4.5" transform="rotate(0,240.5,159.5)"/><path d="M 236 164v 9h 9v -4.5a 4.5 4.5, 0, 0, 0, -4.5 -4.5" transform="rotate(180,240.5,168.5)"/><path d="M 236 182v 9h 4.5a 4.5 4.5, 0, 0, 0, 0 -9" transform="rotate(180,240.5,186.5)"/><path d="M 236 218v 9h 9v -4.5a 4.5 4.5, 0, 0, 0, -4.5 -4.5" transform="rotate(-90,240.5,222.5)"/><rect x="236" y="227" width="9" height="9" transform="rotate(0,240.5,231.5)"/><rect x="236" y="263" width="9" height="9" transform="rotate(0,240.5,267.5)"/><circle cx="240.5" cy="294.5" r="4.5" transform="rotate(0,240.5,294.5)"/><path d="M 236 308v 9h 4.5a 4.5 4.5, 0, 0, 0, 0 -9" transform="rotate(-90,240.5,312.5)"/><rect x="236" y="317" width="9" height="9" transform="rotate(0,240.5,321.5)"/><path d="M 236 326v 9h 9v -4.5a 4.5 4.5, 0, 0, 0, -4.5 -4.5" transform="rotate(90,240.5,330.5)"/><rect x="236" y="353" width="9" height="9" transform="rotate(0,240.5,357.5)"/><rect x="236" y="380" width="9" height="9" transform="rotate(0,240.5,384.5)"/><rect x="236" y="389" width="9" height="9" transform="rotate(0,240.5,393.5)"/><rect x="236" y="425" width="9" height="9" transform="rotate(0,240.5,429.5)"/><path d="M 236 461v 9h 4.5a 4.5 4.5, 0, 0, 0, 0 -9" transform="rotate(0,240.5,465.5)"/><path d="M 245 47v 9h 4.5a 4.5 4.5, 0, 0, 0, 0 -9" transform="rotate(180,249.5,51.5)"/><rect x="245" y="65" width="9" height="9" transform="rotate(0,249.5,69.5)"/><circle cx="249.5" cy="87.5" r="4.5" transform="rotate(0,249.5,87.5)"/><rect x="245" y="101" width="9" height="9" transform="rotate(0,249.5,105.5)"/><rect x="245" y="110" width="9" height="9" transform="rotate(0,249.5,114.5)"/><rect x="245" y="119" width="9" height="9" transform="rotate(0,249.5,123.5)"/><path d="M 245 128v 9h 4.5a 4.5 4.5, 0, 0, 0, 0 -9" transform="rotate(90,249.5,132.5)"/><path d="M 245 164v 9h 4.5a 4.5 4.5, 0, 0, 0, 0 -9" transform="rotate(0,249.5,168.5)"/><rect x="245" y="182" width="9" height="9" transform="rotate(0,249.5,186.5)"/><path d="M 245 218v 9h 9v -4.5a 4.5 4.5, 0, 0, 0, -4.5 -4.5" transform="rotate(0,249.5,222.5)"/><rect x="245" y="227" width="9" height="9" transform="rotate(0,249.5,231.5)"/><circle cx="249.5" cy="249.5" r="4.5" transform="rotate(0,249.5,249.5)"/><rect x="245" y="263" width="9" height="9" transform="rotate(0,249.5,267.5)"/><path d="M 245 272v 9h 4.5a 4.5 4.5, 0, 0, 0, 0 -9" transform="rotate(90,249.5,276.5)"/><path d="M 245 299v 9h 4.5a 4.5 4.5, 0, 0, 0, 0 -9" transform="rotate(180,249.5,303.5)"/><path d="M 245 344v 9h 9v -4.5a 4.5 4.5, 0, 0, 0, -4.5 -4.5" transform="rotate(-90,249.5,348.5)"/><path d="M 245 353v 9h 9v -4.5a 4.5 4.5, 0, 0, 0, -4.5 -4.5" transform="rotate(90,249.5,357.5)"/><path d="M 245 371v 9h 4.5a 4.5 4.5, 0, 0, 0, 0 -9" transform="rotate(-90,249.5,375.5)"/><rect x="245" y="380" width="9" height="9" transform="rotate(0,249.5,384.5)"/><rect x="245" y="389" width="9" height="9" transform="rotate(0,249.5,393.5)"/><circle cx="249.5" cy="411.5" r="4.5" transform="rotate(0,249.5,411.5)"/><rect x="245" y="425" width="9" height="9" transform="rotate(0,249.5,429.5)"/><rect x="245" y="434" width="9" height="9" transform="rotate(0,249.5,438.5)"/><path d="M 245 443v 9h 4.5a 4.5 4.5, 0, 0, 0, 0 -9" transform="rotate(90,249.5,447.5)"/><path d="M 254 29v 9h 4.5a 4.5 4.5, 0, 0, 0, 0 -9" transform="rotate(180,258.5,33.5)"/><path d="M 254 47v 9h 4.5a 4.5 4.5, 0, 0, 0, 0 -9" transform="rotate(0,258.5,51.5)"/><rect x="254" y="65" width="9" height="9" transform="rotate(0,258.5,69.5)"/><rect x="254" y="101" width="9" height="9" transform="rotate(0,258.5,105.5)"/><rect x="254" y="110" width="9" height="9" transform="rotate(0,258.5,114.5)"/><rect x="254" y="119" width="9" height="9" transform="rotate(0,258.5,123.5)"/><path d="M 254 137v 9h 4.5a 4.5 4.5, 0, 0, 0, 0 -9" transform="rotate(-90,258.5,141.5)"/><path d="M 254 146v 9h 4.5a 4.5 4.5, 0, 0, 0, 0 -9" transform="rotate(90,258.5,150.5)"/><rect x="254" y="182" width="9" height="9" transform="rotate(0,258.5,186.5)"/><circle cx="258.5" cy="213.5" r="4.5" transform="rotate(0,258.5,213.5)"/><rect x="254" y="227" width="9" height="9" transform="rotate(0,258.5,231.5)"/><rect x="254" y="263" width="9" height="9" transform="rotate(0,258.5,267.5)"/><path d="M 254 290v 9h 4.5a 4.5 4.5, 0, 0, 0, 0 -9" transform="rotate(-90,258.5,294.5)"/><rect x="254" y="299" width="9" height="9" transform="rotate(0,258.5,303.5)"/><path d="M 254 308v 9h 9v -4.5a 4.5 4.5, 0, 0, 0, -4.5 -4.5" transform="rotate(180,258.5,312.5)"/><rect x="254" y="344" width="9" height="9" transform="rotate(0,258.5,348.5)"/><circle cx="258.5" cy="366.5" r="4.5" transform="rotate(0,258.5,366.5)"/><rect x="254" y="389" width="9" height="9" transform="rotate(0,258.5,393.5)"/><rect x="254" y="425" width="9" height="9" transform="rotate(0,258.5,429.5)"/><path d="M 254 434v 9h 9v -4.5a 4.5 4.5, 0, 0, 0, -4.5 -4.5" transform="rotate(90,258.5,438.5)"/><path d="M 254 452v 9h 4.5a 4.5 4.5, 0, 0, 0, 0 -9" transform="rotate(-90,258.5,456.5)"/><path d="M 254 461v 9h 9v -4.5a 4.5 4.5, 0, 0, 0, -4.5 -4.5" transform="rotate(180,258.5,465.5)"/><rect x="263" y="29" width="9" height="9" transform="rotate(0,267.5,33.5)"/><path d="M 263 38v 9h 4.5a 4.5 4.5, 0, 0, 0, 0 -9" transform="rotate(90,267.5,42.5)"/><path d="M 263 56v 9h 9v -4.5a 4.5 4.5, 0, 0, 0, -4.5 -4.5" transform="rotate(-90,267.5,60.5)"/><rect x="263" y="65" width="9" height="9" transform="rotate(0,267.5,69.5)"/><rect x="263" y="74" width="9" height="9" transform="rotate(0,267.5,78.5)"/><rect x="263" y="83" width="9" height="9" transform="rotate(0,267.5,87.5)"/><rect x="263" y="92" width="9" height="9" transform="rotate(0,267.5,96.5)"/><rect x="263" y="101" width="9" height="9" transform="rotate(0,267.5,105.5)"/><path d="M 263 119v 9h 9v -4.5a 4.5 4.5, 0, 0, 0, -4.5 -4.5" transform="rotate(0,267.5,123.5)"/><path d="M 263 128v 9h 4.5a 4.5 4.5, 0, 0, 0, 0 -9" transform="rotate(90,267.5,132.5)"/><circle cx="267.5" cy="168.5" r="4.5" transform="rotate(0,267.5,168.5)"/><path d="M 263 182v 9h 4.5a 4.5 4.5, 0, 0, 0, 0 -9" transform="rotate(0,267.5,186.5)"/><path d="M 263 200v 9h 4.5a 4.5 4.5, 0, 0, 0, 0 -9" transform="rotate(180,267.5,204.5)"/><path d="M 263 218v 9h 9v -4.5a 4.5 4.5, 0, 0, 0, -4.5 -4.5" transform="rotate(-90,267.5,222.5)"/><rect x="263" y="227" width="9" height="9" transform="rotate(0,267.5,231.5)"/><rect x="263" y="236" width="9" height="9" transform="rotate(0,267.5,240.5)"/><rect x="263" y="245" width="9" height="9" transform="rotate(0,267.5,249.5)"/><rect x="263" y="254" width="9" height="9" transform="rotate(0,267.5,258.5)"/><rect x="263" y="263" width="9" height="9" transform="rotate(0,267.5,267.5)"/><path d="M 263 272v 9h 9v -4.5a 4.5 4.5, 0, 0, 0, -4.5 -4.5" transform="rotate(180,267.5,276.5)"/><path d="M 263 308v 9h 4.5a 4.5 4.5, 0, 0, 0, 0 -9" transform="rotate(0,267.5,312.5)"/><path d="M 263 326v 9h 9v -4.5a 4.5 4.5, 0, 0, 0, -4.5 -4.5" transform="rotate(-90,267.5,330.5)"/><rect x="263" y="335" width="9" height="9" transform="rotate(0,267.5,339.5)"/><path d="M 263 344v 9h 9v -4.5a 4.5 4.5, 0, 0, 0, -4.5 -4.5" transform="rotate(90,267.5,348.5)"/><circle cx="267.5" cy="375.5" r="4.5" transform="rotate(0,267.5,375.5)"/><rect x="263" y="389" width="9" height="9" transform="rotate(0,267.5,393.5)"/><rect x="263" y="398" width="9" height="9" transform="rotate(0,267.5,402.5)"/><rect x="263" y="407" width="9" height="9" transform="rotate(0,267.5,411.5)"/><rect x="263" y="416" width="9" height="9" transform="rotate(0,267.5,420.5)"/><path d="M 263 425v 9h 9v -4.5a 4.5 4.5, 0, 0, 0, -4.5 -4.5" transform="rotate(90,267.5,429.5)"/><circle cx="267.5" cy="447.5" r="4.5" transform="rotate(0,267.5,447.5)"/><rect x="263" y="461" width="9" height="9" transform="rotate(0,267.5,465.5)"/><path d="M 272 29v 9h 4.5a 4.5 4.5, 0, 0, 0, 0 -9" transform="rotate(0,276.5,33.5)"/><path d="M 272 47v 9h 4.5a 4.5 4.5, 0, 0, 0, 0 -9" transform="rotate(-90,276.5,51.5)"/><rect x="272" y="56" width="9" height="9" transform="rotate(0,276.5,60.5)"/><rect x="272" y="65" width="9" height="9" transform="rotate(0,276.5,69.5)"/><rect x="272" y="74" width="9" height="9" transform="rotate(0,276.5,78.5)"/><path d="M 272 101v 9h 9v -4.5a 4.5 4.5, 0, 0, 0, -4.5 -4.5" transform="rotate(0,276.5,105.5)"/><path d="M 272 110v 9h 9v -4.5a 4.5 4.5, 0, 0, 0, -4.5 -4.5" transform="rotate(180,276.5,114.5)"/><path d="M 272 137v 9h 4.5a 4.5 4.5, 0, 0, 0, 0 -9" transform="rotate(180,276.5,141.5)"/><path d="M 272 200v 9h 9v -4.5a 4.5 4.5, 0, 0, 0, -4.5 -4.5" transform="rotate(0,276.5,204.5)"/><rect x="272" y="209" width="9" height="9" transform="rotate(0,276.5,213.5)"/><rect x="272" y="218" width="9" height="9" transform="rotate(0,276.5,222.5)"/><path d="M 272 236v 9h 9v -4.5a 4.5 4.5, 0, 0, 0, -4.5 -4.5" transform="rotate(0,276.5,240.5)"/><rect x="272" y="245" width="9" height="9" transform="rotate(0,276.5,249.5)"/><path d="M 272 263v 9h 9v -4.5a 4.5 4.5, 0, 0, 0, -4.5 -4.5" transform="rotate(0,276.5,267.5)"/><path d="M 272 272v 9h 9v -4.5a 4.5 4.5, 0, 0, 0, -4.5 -4.5" transform="rotate(90,276.5,276.5)"/><circle cx="276.5" cy="294.5" r="4.5" transform="rotate(0,276.5,294.5)"/><path d="M 272 317v 9h 4.5a 4.5 4.5, 0, 0, 0, 0 -9" transform="rotate(-90,276.5,321.5)"/><path d="M 272 326v 9h 9v -4.5a 4.5 4.5, 0, 0, 0, -4.5 -4.5" transform="rotate(90,276.5,330.5)"/><path d="M 272 362v 9h 4.5a 4.5 4.5, 0, 0, 0, 0 -9" transform="rotate(180,276.5,366.5)"/><rect x="272" y="389" width="9" height="9" transform="rotate(0,276.5,393.5)"/><rect x="272" y="398" width="9" height="9" transform="rotate(0,276.5,402.5)"/><path d="M 272 416v 9h 4.5a 4.5 4.5, 0, 0, 0, 0 -9" transform="rotate(0,276.5,420.5)"/><path d="M 272 452v 9h 4.5a 4.5 4.5, 0, 0, 0, 0 -9" transform="rotate(-90,276.5,456.5)"/><rect x="272" y="461" width="9" height="9" transform="rotate(0,276.5,465.5)"/><path d="M 281 56v 9h 4.5a 4.5 4.5, 0, 0, 0, 0 -9" transform="rotate(0,285.5,60.5)"/><rect x="281" y="74" width="9" height="9" transform="rotate(0,285.5,78.5)"/><rect x="281" y="83" width="9" height="9" transform="rotate(0,285.5,87.5)"/><path d="M 281 92v 9h 9v -4.5a 4.5 4.5, 0, 0, 0, -4.5 -4.5" transform="rotate(180,285.5,96.5)"/><rect x="281" y="110" width="9" height="9" transform="rotate(0,285.5,114.5)"/><rect x="281" y="119" width="9" height="9" transform="rotate(0,285.5,123.5)"/><rect x="281" y="128" width="9" height="9" transform="rotate(0,285.5,132.5)"/><rect x="281" y="137" width="9" height="9" transform="rotate(0,285.5,141.5)"/><path d="M 281 155v 9h 9v -4.5a 4.5 4.5, 0, 0, 0, -4.5 -4.5" transform="rotate(-90,285.5,159.5)"/><path d="M 281 164v 9h 9v -4.5a 4.5 4.5, 0, 0, 0, -4.5 -4.5" transform="rotate(180,285.5,168.5)"/><path d="M 281 182v 9h 4.5a 4.5 4.5, 0, 0, 0, 0 -9" transform="rotate(180,285.5,186.5)"/><path d="M 281 209v 9h 9v -4.5a 4.5 4.5, 0, 0, 0, -4.5 -4.5" transform="rotate(0,285.5,213.5)"/><rect x="281" y="218" width="9" height="9" transform="rotate(0,285.5,222.5)"/><path d="M 281 245v 9h 4.5a 4.5 4.5, 0, 0, 0, 0 -9" transform="rotate(0,285.5,249.5)"/><path d="M 281 281v 9h 4.5a 4.5 4.5, 0, 0, 0, 0 -9" transform="rotate(180,285.5,285.5)"/><path d="M 281 299v 9h 9v -4.5a 4.5 4.5, 0, 0, 0, -4.5 -4.5" transform="rotate(-90,285.5,303.5)"/><path d="M 281 308v 9h 9v -4.5a 4.5 4.5, 0, 0, 0, -4.5 -4.5" transform="rotate(180,285.5,312.5)"/><path d="M 281 335v 9h 4.5a 4.5 4.5, 0, 0, 0, 0 -9" transform="rotate(-90,285.5,339.5)"/><rect x="281" y="344" width="9" height="9" transform="rotate(0,285.5,348.5)"/><rect x="281" y="353" width="9" height="9" transform="rotate(0,285.5,357.5)"/><rect x="281" y="362" width="9" height="9" transform="rotate(0,285.5,366.5)"/><path d="M 281 380v 9h 4.5a 4.5 4.5, 0, 0, 0, 0 -9" transform="rotate(-90,285.5,384.5)"/><rect x="281" y="389" width="9" height="9" transform="rotate(0,285.5,393.5)"/><rect x="281" y="398" width="9" height="9" transform="rotate(0,285.5,402.5)"/><path d="M 281 434v 9h 9v -4.5a 4.5 4.5, 0, 0, 0, -4.5 -4.5" transform="rotate(-90,285.5,438.5)"/><path d="M 281 443v 9h 4.5a 4.5 4.5, 0, 0, 0, 0 -9" transform="rotate(90,285.5,447.5)"/><rect x="281" y="461" width="9" height="9" transform="rotate(0,285.5,465.5)"/><path d="M 290 29v 9h 4.5a 4.5 4.5, 0, 0, 0, 0 -9" transform="rotate(180,294.5,33.5)"/><circle cx="294.5" cy="51.5" r="4.5" transform="rotate(0,294.5,51.5)"/><path d="M 290 65v 9h 9v -4.5a 4.5 4.5, 0, 0, 0, -4.5 -4.5" transform="rotate(-90,294.5,69.5)"/><rect x="290" y="74" width="9" height="9" transform="rotate(0,294.5,78.5)"/><rect x="290" y="92" width="9" height="9" transform="rotate(0,294.5,96.5)"/><rect x="290" y="101" width="9" height="9" transform="rotate(0,294.5,105.5)"/><rect x="290" y="110" width="9" height="9" transform="rotate(0,294.5,114.5)"/><rect x="290" y="137" width="9" height="9" transform="rotate(0,294.5,141.5)"/><rect x="290" y="146" width="9" height="9" transform="rotate(0,294.5,150.5)"/><rect x="290" y="155" width="9" height="9" transform="rotate(0,294.5,159.5)"/><path d="M 290 164v 9h 9v -4.5a 4.5 4.5, 0, 0, 0, -4.5 -4.5" transform="rotate(90,294.5,168.5)"/><rect x="290" y="182" width="9" height="9" transform="rotate(0,294.5,186.5)"/><path d="M 290 200v 9h 4.5a 4.5 4.5, 0, 0, 0, 0 -9" transform="rotate(180,294.5,204.5)"/><path d="M 290 218v 9h 9v -4.5a 4.5 4.5, 0, 0, 0, -4.5 -4.5" transform="rotate(0,294.5,222.5)"/><rect x="290" y="227" width="9" height="9" transform="rotate(0,294.5,231.5)"/><path d="M 290 236v 9h 4.5a 4.5 4.5, 0, 0, 0, 0 -9" transform="rotate(90,294.5,240.5)"/><path d="M 290 263v 9h 9v -4.5a 4.5 4.5, 0, 0, 0, -4.5 -4.5" transform="rotate(-90,294.5,267.5)"/><rect x="290" y="272" width="9" height="9" transform="rotate(0,294.5,276.5)"/><rect x="290" y="281" width="9" height="9" transform="rotate(0,294.5,285.5)"/><rect x="290" y="290" width="9" height="9" transform="rotate(0,294.5,294.5)"/><rect x="290" y="299" width="9" height="9" transform="rotate(0,294.5,303.5)"/><rect x="290" y="308" width="9" height="9" transform="rotate(0,294.5,312.5)"/><rect x="290" y="344" width="9" height="9" transform="rotate(0,294.5,348.5)"/><path d="M 290 362v 9h 4.5a 4.5 4.5, 0, 0, 0, 0 -9" transform="rotate(0,294.5,366.5)"/><rect x="290" y="389" width="9" height="9" transform="rotate(0,294.5,393.5)"/><rect x="290" y="398" width="9" height="9" transform="rotate(0,294.5,402.5)"/><rect x="290" y="407" width="9" height="9" transform="rotate(0,294.5,411.5)"/><rect x="290" y="416" width="9" height="9" transform="rotate(0,294.5,420.5)"/><rect x="290" y="425" width="9" height="9" transform="rotate(0,294.5,429.5)"/><path d="M 290 434v 9h 9v -4.5a 4.5 4.5, 0, 0, 0, -4.5 -4.5" transform="rotate(90,294.5,438.5)"/><rect x="290" y="461" width="9" height="9" transform="rotate(0,294.5,465.5)"/><rect x="299" y="29" width="9" height="9" transform="rotate(0,303.5,33.5)"/><path d="M 299 65v 9h 9v -4.5a 4.5 4.5, 0, 0, 0, -4.5 -4.5" transform="rotate(0,303.5,69.5)"/><rect x="299" y="74" width="9" height="9" transform="rotate(0,303.5,78.5)"/><rect x="299" y="83" width="9" height="9" transform="rotate(0,303.5,87.5)"/><path d="M 299 92v 9h 9v -4.5a 4.5 4.5, 0, 0, 0, -4.5 -4.5" transform="rotate(90,303.5,96.5)"/><rect x="299" y="110" width="9" height="9" transform="rotate(0,303.5,114.5)"/><path d="M 299 119v 9h 9v -4.5a 4.5 4.5, 0, 0, 0, -4.5 -4.5" transform="rotate(180,303.5,123.5)"/><rect x="299" y="137" width="9" height="9" transform="rotate(0,303.5,141.5)"/><path d="M 299 173v 9h 4.5a 4.5 4.5, 0, 0, 0, 0 -9" transform="rotate(-90,303.5,177.5)"/><rect x="299" y="182" width="9" height="9" transform="rotate(0,303.5,186.5)"/><rect x="299" y="191" width="9" height="9" transform="rotate(0,303.5,195.5)"/><rect x="299" y="200" width="9" height="9" transform="rotate(0,303.5,204.5)"/><path d="M 299 209v 9h 9v -4.5a 4.5 4.5, 0, 0, 0, -4.5 -4.5" transform="rotate(180,303.5,213.5)"/><rect x="299" y="263" width="9" height="9" transform="rotate(0,303.5,267.5)"/><path d="M 299 281v 9h 4.5a 4.5 4.5, 0, 0, 0, 0 -9" transform="rotate(0,303.5,285.5)"/><path d="M 299 308v 9h 4.5a 4.5 4.5, 0, 0, 0, 0 -9" transform="rotate(0,303.5,312.5)"/><path d="M 299 326v 9h 4.5a 4.5 4.5, 0, 0, 0, 0 -9" transform="rotate(-90,303.5,330.5)"/><rect x="299" y="335" width="9" height="9" transform="rotate(0,303.5,339.5)"/><rect x="299" y="344" width="9" height="9" transform="rotate(0,303.5,348.5)"/><path d="M 299 353v 9h 9v -4.5a 4.5 4.5, 0, 0, 0, -4.5 -4.5" transform="rotate(180,303.5,357.5)"/><path d="M 299 371v 9h 4.5a 4.5 4.5, 0, 0, 0, 0 -9" transform="rotate(180,303.5,375.5)"/><rect x="299" y="389" width="9" height="9" transform="rotate(0,303.5,393.5)"/><rect x="299" y="398" width="9" height="9" transform="rotate(0,303.5,402.5)"/><path d="M 299 407v 9h 9v -4.5a 4.5 4.5, 0, 0, 0, -4.5 -4.5" transform="rotate(90,303.5,411.5)"/><rect x="299" y="425" width="9" height="9" transform="rotate(0,303.5,429.5)"/><path d="M 299 443v 9h 4.5a 4.5 4.5, 0, 0, 0, 0 -9" transform="rotate(-90,303.5,447.5)"/><rect x="299" y="452" width="9" height="9" transform="rotate(0,303.5,456.5)"/><rect x="299" y="461" width="9" height="9" transform="rotate(0,303.5,465.5)"/><path d="M 308 29v 9h 9v -4.5a 4.5 4.5, 0, 0, 0, -4.5 -4.5" transform="rotate(0,312.5,33.5)"/><rect x="308" y="38" width="9" height="9" transform="rotate(0,312.5,42.5)"/><path d="M 308 47v 9h 4.5a 4.5 4.5, 0, 0, 0, 0 -9" transform="rotate(90,312.5,51.5)"/><path d="M 308 110v 9h 9v -4.5a 4.5 4.5, 0, 0, 0, -4.5 -4.5" transform="rotate(0,312.5,114.5)"/><rect x="308" y="119" width="9" height="9" transform="rotate(0,312.5,123.5)"/><path d="M 308 137v 9h 4.5a 4.5 4.5, 0, 0, 0, 0 -9" transform="rotate(0,312.5,141.5)"/><path d="M 308 155v 9h 4.5a 4.5 4.5, 0, 0, 0, 0 -9" transform="rotate(-90,312.5,159.5)"/><path d="M 308 164v 9h 9v -4.5a 4.5 4.5, 0, 0, 0, -4.5 -4.5" transform="rotate(180,312.5,168.5)"/><path d="M 308 182v 9h 4.5a 4.5 4.5, 0, 0, 0, 0 -9" transform="rotate(0,312.5,186.5)"/><path d="M 308 200v 9h 9v -4.5a 4.5 4.5, 0, 0, 0, -4.5 -4.5" transform="rotate(0,312.5,204.5)"/><rect x="308" y="209" width="9" height="9" transform="rotate(0,312.5,213.5)"/><path d="M 308 218v 9h 4.5a 4.5 4.5, 0, 0, 0, 0 -9" transform="rotate(90,312.5,222.5)"/><path d="M 308 254v 9h 4.5a 4.5 4.5, 0, 0, 0, 0 -9" transform="rotate(-90,312.5,258.5)"/><rect x="308" y="263" width="9" height="9" transform="rotate(0,312.5,267.5)"/><path d="M 308 272v 9h 4.5a 4.5 4.5, 0, 0, 0, 0 -9" transform="rotate(90,312.5,276.5)"/><path d="M 308 290v 9h 4.5a 4.5 4.5, 0, 0, 0, 0 -9" transform="rotate(180,312.5,294.5)"/><path d="M 308 353v 9h 9v -4.5a 4.5 4.5, 0, 0, 0, -4.5 -4.5" transform="rotate(0,312.5,357.5)"/><rect x="308" y="362" width="9" height="9" transform="rotate(0,312.5,366.5)"/><rect x="308" y="371" width="9" height="9" transform="rotate(0,312.5,375.5)"/><rect x="308" y="389" width="9" height="9" transform="rotate(0,312.5,393.5)"/><path d="M 308 416v 9h 4.5a 4.5 4.5, 0, 0, 0, 0 -9" transform="rotate(-90,312.5,420.5)"/><rect x="308" y="425" width="9" height="9" transform="rotate(0,312.5,429.5)"/><rect x="308" y="461" width="9" height="9" transform="rotate(0,312.5,465.5)"/><path d="M 317 38v 9h 4.5a 4.5 4.5, 0, 0, 0, 0 -9" transform="rotate(0,321.5,42.5)"/><path d="M 317 56v 9h 4.5a 4.5 4.5, 0, 0, 0, 0 -9" transform="rotate(-90,321.5,60.5)"/><path d="M 317 65v 9h 4.5a 4.5 4.5, 0, 0, 0, 0 -9" transform="rotate(90,321.5,69.5)"/><path d="M 317 83v 9h 4.5a 4.5 4.5, 0, 0, 0, 0 -9" transform="rotate(-90,321.5,87.5)"/><rect x="317" y="92" width="9" height="9" transform="rotate(0,321.5,96.5)"/><path d="M 317 101v 9h 4.5a 4.5 4.5, 0, 0, 0, 0 -9" transform="rotate(90,321.5,105.5)"/><path d="M 317 119v 9h 9v -4.5a 4.5 4.5, 0, 0, 0, -4.5 -4.5" transform="rotate(0,321.5,123.5)"/><path d="M 317 128v 9h 9v -4.5a 4.5 4.5, 0, 0, 0, -4.5 -4.5" transform="rotate(180,321.5,132.5)"/><path d="M 317 164v 9h 9v -4.5a 4.5 4.5, 0, 0, 0, -4.5 -4.5" transform="rotate(0,321.5,168.5)"/><path d="M 317 173v 9h 4.5a 4.5 4.5, 0, 0, 0, 0 -9" transform="rotate(90,321.5,177.5)"/><circle cx="321.5" cy="195.5" r="4.5" transform="rotate(0,321.5,195.5)"/><rect x="317" y="209" width="9" height="9" transform="rotate(0,321.5,213.5)"/><path d="M 317 227v 9h 9v -4.5a 4.5 4.5, 0, 0, 0, -4.5 -4.5" transform="rotate(-90,321.5,231.5)"/><path d="M 317 236v 9h 4.5a 4.5 4.5, 0, 0, 0, 0 -9" transform="rotate(90,321.5,240.5)"/><path d="M 317 263v 9h 4.5a 4.5 4.5, 0, 0, 0, 0 -9" transform="rotate(0,321.5,267.5)"/><path d="M 317 281v 9h 9v -4.5a 4.5 4.5, 0, 0, 0, -4.5 -4.5" transform="rotate(-90,321.5,285.5)"/><rect x="317" y="290" width="9" height="9" transform="rotate(0,321.5,294.5)"/><rect x="317" y="299" width="9" height="9" transform="rotate(0,321.5,303.5)"/><rect x="317" y="308" width="9" height="9" transform="rotate(0,321.5,312.5)"/><rect x="317" y="317" width="9" height="9" transform="rotate(0,321.5,321.5)"/><path d="M 317 326v 9h 9v -4.5a 4.5 4.5, 0, 0, 0, -4.5 -4.5" transform="rotate(180,321.5,330.5)"/><circle cx="321.5" cy="348.5" r="4.5" transform="rotate(0,321.5,348.5)"/><path d="M 317 371v 9h 9v -4.5a 4.5 4.5, 0, 0, 0, -4.5 -4.5" transform="rotate(0,321.5,375.5)"/><rect x="317" y="380" width="9" height="9" transform="rotate(0,321.5,384.5)"/><rect x="317" y="389" width="9" height="9" transform="rotate(0,321.5,393.5)"/><circle cx="321.5" cy="411.5" r="4.5" transform="rotate(0,321.5,411.5)"/><path d="M 317 425v 9h 4.5a 4.5 4.5, 0, 0, 0, 0 -9" transform="rotate(0,321.5,429.5)"/><path d="M 317 443v 9h 4.5a 4.5 4.5, 0, 0, 0, 0 -9" transform="rotate(-90,321.5,447.5)"/><rect x="317" y="452" width="9" height="9" transform="rotate(0,321.5,456.5)"/><path d="M 317 461v 9h 9v -4.5a 4.5 4.5, 0, 0, 0, -4.5 -4.5" transform="rotate(90,321.5,465.5)"/><circle cx="330.5" cy="51.5" r="4.5" transform="rotate(0,330.5,51.5)"/><path d="M 326 110v 9h 4.5a 4.5 4.5, 0, 0, 0, 0 -9" transform="rotate(180,330.5,114.5)"/><rect x="326" y="128" width="9" height="9" transform="rotate(0,330.5,132.5)"/><circle cx="330.5" cy="186.5" r="4.5" transform="rotate(0,330.5,186.5)"/><rect x="326" y="209" width="9" height="9" transform="rotate(0,330.5,213.5)"/><rect x="326" y="218" width="9" height="9" transform="rotate(0,330.5,222.5)"/><rect x="326" y="227" width="9" height="9" transform="rotate(0,330.5,231.5)"/><circle cx="330.5" cy="249.5" r="4.5" transform="rotate(0,330.5,249.5)"/><path d="M 326 272v 9h 4.5a 4.5 4.5, 0, 0, 0, 0 -9" transform="rotate(-90,330.5,276.5)"/><rect x="326" y="281" width="9" height="9" transform="rotate(0,330.5,285.5)"/><path d="M 326 299v 9h 4.5a 4.5 4.5, 0, 0, 0, 0 -9" transform="rotate(0,330.5,303.5)"/><rect x="326" y="317" width="9" height="9" transform="rotate(0,330.5,321.5)"/><rect x="326" y="326" width="9" height="9" transform="rotate(0,330.5,330.5)"/><circle cx="330.5" cy="366.5" r="4.5" transform="rotate(0,330.5,366.5)"/><path d="M 326 389v 9h 4.5a 4.5 4.5, 0, 0, 0, 0 -9" transform="rotate(0,330.5,393.5)"/><path d="M 326 416v 9h 4.5a 4.5 4.5, 0, 0, 0, 0 -9" transform="rotate(180,330.5,420.5)"/><circle cx="330.5" cy="438.5" r="4.5" transform="rotate(0,330.5,438.5)"/><path d="M 335 38v 9h 4.5a 4.5 4.5, 0, 0, 0, 0 -9" transform="rotate(180,339.5,42.5)"/><path d="M 335 56v 9h 9v -4.5a 4.5 4.5, 0, 0, 0, -4.5 -4.5" transform="rotate(-90,339.5,60.5)"/><rect x="335" y="65" width="9" height="9" transform="rotate(0,339.5,69.5)"/><rect x="335" y="74" width="9" height="9" transform="rotate(0,339.5,78.5)"/><rect x="335" y="83" width="9" height="9" transform="rotate(0,339.5,87.5)"/><path d="M 335 92v 9h 4.5a 4.5 4.5, 0, 0, 0, 0 -9" transform="rotate(90,339.5,96.5)"/><path d="M 335 110v 9h 4.5a 4.5 4.5, 0, 0, 0, 0 -9" transform="rotate(0,339.5,114.5)"/><rect x="335" y="128" width="9" height="9" transform="rotate(0,339.5,132.5)"/><circle cx="339.5" cy="150.5" r="4.5" transform="rotate(0,339.5,150.5)"/><path d="M 335 164v 9h 9v -4.5a 4.5 4.5, 0, 0, 0, -4.5 -4.5" transform="rotate(-90,339.5,168.5)"/><path d="M 335 173v 9h 9v -4.5a 4.5 4.5, 0, 0, 0, -4.5 -4.5" transform="rotate(180,339.5,177.5)"/><rect x="335" y="209" width="9" height="9" transform="rotate(0,339.5,213.5)"/><rect x="335" y="218" width="9" height="9" transform="rotate(0,339.5,222.5)"/><rect x="335" y="227" width="9" height="9" transform="rotate(0,339.5,231.5)"/><path d="M 335 236v 9h 9v -4.5a 4.5 4.5, 0, 0, 0, -4.5 -4.5" transform="rotate(180,339.5,240.5)"/><path d="M 335 281v 9h 9v -4.5a 4.5 4.5, 0, 0, 0, -4.5 -4.5" transform="rotate(0,339.5,285.5)"/><path d="M 335 290v 9h 4.5a 4.5 4.5, 0, 0, 0, 0 -9" transform="rotate(90,339.5,294.5)"/><path d="M 335 308v 9h 4.5a 4.5 4.5, 0, 0, 0, 0 -9" transform="rotate(-90,339.5,312.5)"/><rect x="335" y="317" width="9" height="9" transform="rotate(0,339.5,321.5)"/><rect x="335" y="326" width="9" height="9" transform="rotate(0,339.5,330.5)"/><rect x="335" y="335" width="9" height="9" transform="rotate(0,339.5,339.5)"/><path d="M 335 344v 9h 4.5a 4.5 4.5, 0, 0, 0, 0 -9" transform="rotate(90,339.5,348.5)"/><circle cx="339.5" cy="375.5" r="4.5" transform="rotate(0,339.5,375.5)"/><path d="M 335 407v 9h 4.5a 4.5 4.5, 0, 0, 0, 0 -9" transform="rotate(-90,339.5,411.5)"/><rect x="335" y="416" width="9" height="9" transform="rotate(0,339.5,420.5)"/><path d="M 335 452v 9h 4.5a 4.5 4.5, 0, 0, 0, 0 -9" transform="rotate(-90,339.5,456.5)"/><path d="M 335 461v 9h 9v -4.5a 4.5 4.5, 0, 0, 0, -4.5 -4.5" transform="rotate(180,339.5,465.5)"/><rect x="344" y="38" width="9" height="9" transform="rotate(0,348.5,42.5)"/><rect x="344" y="47" width="9" height="9" transform="rotate(0,348.5,51.5)"/><path d="M 344 56v 9h 9v -4.5a 4.5 4.5, 0, 0, 0, -4.5 -4.5" transform="rotate(90,348.5,60.5)"/><path d="M 344 74v 9h 4.5a 4.5 4.5, 0, 0, 0, 0 -9" transform="rotate(0,348.5,78.5)"/><circle cx="348.5" cy="105.5" r="4.5" transform="rotate(0,348.5,105.5)"/><path d="M 344 119v 9h 4.5a 4.5 4.5, 0, 0, 0, 0 -9" transform="rotate(-90,348.5,123.5)"/><path d="M 344 128v 9h 9v -4.5a 4.5 4.5, 0, 0, 0, -4.5 -4.5" transform="rotate(90,348.5,132.5)"/><path d="M 344 155v 9h 4.5a 4.5 4.5, 0, 0, 0, 0 -9" transform="rotate(-90,348.5,159.5)"/><rect x="344" y="164" width="9" height="9" transform="rotate(0,348.5,168.5)"/><path d="M 344 173v 9h 9v -4.5a 4.5 4.5, 0, 0, 0, -4.5 -4.5" transform="rotate(90,348.5,177.5)"/><rect x="344" y="209" width="9" height="9" transform="rotate(0,348.5,213.5)"/><path d="M 344 227v 9h 9v -4.5a 4.5 4.5, 0, 0, 0, -4.5 -4.5" transform="rotate(0,348.5,231.5)"/><rect x="344" y="236" width="9" height="9" transform="rotate(0,348.5,240.5)"/><rect x="344" y="245" width="9" height="9" transform="rotate(0,348.5,249.5)"/><path d="M 344 254v 9h 4.5a 4.5 4.5, 0, 0, 0, 0 -9" transform="rotate(90,348.5,258.5)"/><path d="M 344 272v 9h 4.5a 4.5 4.5, 0, 0, 0, 0 -9" transform="rotate(180,348.5,276.5)"/><circle cx="348.5" cy="303.5" r="4.5" transform="rotate(0,348.5,303.5)"/><path d="M 344 317v 9h 4.5a 4.5 4.5, 0, 0, 0, 0 -9" transform="rotate(0,348.5,321.5)"/><circle cx="348.5" cy="393.5" r="4.5" transform="rotate(0,348.5,393.5)"/><path d="M 344 416v 9h 4.5a 4.5 4.5, 0, 0, 0, 0 -9" transform="rotate(0,348.5,420.5)"/><rect x="344" y="461" width="9" height="9" transform="rotate(0,348.5,465.5)"/><path d="M 353 29v 9h 4.5a 4.5 4.5, 0, 0, 0, 0 -9" transform="rotate(-90,357.5,33.5)"/><path d="M 353 38v 9h 9v -4.5a 4.5 4.5, 0, 0, 0, -4.5 -4.5" transform="rotate(90,357.5,42.5)"/><circle cx="357.5" cy="87.5" r="4.5" transform="rotate(0,357.5,87.5)"/><path d="M 353 137v 9h 4.5a 4.5 4.5, 0, 0, 0, 0 -9" transform="rotate(-90,357.5,141.5)"/><path d="M 353 146v 9h 9v -4.5a 4.5 4.5, 0, 0, 0, -4.5 -4.5" transform="rotate(180,357.5,150.5)"/><path d="M 353 164v 9h 4.5a 4.5 4.5, 0, 0, 0, 0 -9" transform="rotate(0,357.5,168.5)"/><path d="M 353 200v 9h 9v -4.5a 4.5 4.5, 0, 0, 0, -4.5 -4.5" transform="rotate(-90,357.5,204.5)"/><path d="M 353 209v 9h 9v -4.5a 4.5 4.5, 0, 0, 0, -4.5 -4.5" transform="rotate(90,357.5,213.5)"/><path d="M 353 236v 9h 4.5a 4.5 4.5, 0, 0, 0, 0 -9" transform="rotate(0,357.5,240.5)"/><path d="M 353 263v 9h 4.5a 4.5 4.5, 0, 0, 0, 0 -9" transform="rotate(-90,357.5,267.5)"/><path d="M 353 272v 9h 9v -4.5a 4.5 4.5, 0, 0, 0, -4.5 -4.5" transform="rotate(90,357.5,276.5)"/><path d="M 353 290v 9h 4.5a 4.5 4.5, 0, 0, 0, 0 -9" transform="rotate(180,357.5,294.5)"/><path d="M 353 344v 9h 9v -4.5a 4.5 4.5, 0, 0, 0, -4.5 -4.5" transform="rotate(-90,357.5,348.5)"/><path d="M 353 353v 9h 4.5a 4.5 4.5, 0, 0, 0, 0 -9" transform="rotate(90,357.5,357.5)"/><path d="M 353 371v 9h 4.5a 4.5 4.5, 0, 0, 0, 0 -9" transform="rotate(-90,357.5,375.5)"/><path d="M 353 380v 9h 9v -4.5a 4.5 4.5, 0, 0, 0, -4.5 -4.5" transform="rotate(180,357.5,384.5)"/><path d="M 353 398v 9h 4.5a 4.5 4.5, 0, 0, 0, 0 -9" transform="rotate(-90,357.5,402.5)"/><path d="M 353 407v 9h 9v -4.5a 4.5 4.5, 0, 0, 0, -4.5 -4.5" transform="rotate(180,357.5,411.5)"/><circle cx="357.5" cy="429.5" r="4.5" transform="rotate(0,357.5,429.5)"/><path d="M 353 443v 9h 4.5a 4.5 4.5, 0, 0, 0, 0 -9" transform="rotate(-90,357.5,447.5)"/><rect x="353" y="452" width="9" height="9" transform="rotate(0,357.5,456.5)"/><path d="M 353 461v 9h 9v -4.5a 4.5 4.5, 0, 0, 0, -4.5 -4.5" transform="rotate(90,357.5,465.5)"/><path d="M 362 56v 9h 4.5a 4.5 4.5, 0, 0, 0, 0 -9" transform="rotate(-90,366.5,60.5)"/><rect x="362" y="65" width="9" height="9" transform="rotate(0,366.5,69.5)"/><path d="M 362 74v 9h 9v -4.5a 4.5 4.5, 0, 0, 0, -4.5 -4.5" transform="rotate(180,366.5,78.5)"/><path d="M 362 92v 9h 9v -4.5a 4.5 4.5, 0, 0, 0, -4.5 -4.5" transform="rotate(-90,366.5,96.5)"/><rect x="362" y="101" width="9" height="9" transform="rotate(0,366.5,105.5)"/><path d="M 362 110v 9h 9v -4.5a 4.5 4.5, 0, 0, 0, -4.5 -4.5" transform="rotate(180,366.5,114.5)"/><path d="M 362 146v 9h 4.5a 4.5 4.5, 0, 0, 0, 0 -9" transform="rotate(0,366.5,150.5)"/><path d="M 362 191v 9h 9v -4.5a 4.5 4.5, 0, 0, 0, -4.5 -4.5" transform="rotate(-90,366.5,195.5)"/><path d="M 362 200v 9h 9v -4.5a 4.5 4.5, 0, 0, 0, -4.5 -4.5" transform="rotate(90,366.5,204.5)"/><circle cx="366.5" cy="231.5" r="4.5" transform="rotate(0,366.5,231.5)"/><path d="M 362 290v 9h 9v -4.5a 4.5 4.5, 0, 0, 0, -4.5 -4.5" transform="rotate(0,366.5,294.5)"/><path d="M 362 299v 9h 4.5a 4.5 4.5, 0, 0, 0, 0 -9" transform="rotate(90,366.5,303.5)"/><path d="M 362 344v 9h 4.5a 4.5 4.5, 0, 0, 0, 0 -9" transform="rotate(0,366.5,348.5)"/><path d="M 362 362v 9h 4.5a 4.5 4.5, 0, 0, 0, 0 -9" transform="rotate(180,366.5,366.5)"/><path d="M 362 380v 9h 4.5a 4.5 4.5, 0, 0, 0, 0 -9" transform="rotate(0,366.5,384.5)"/><rect x="362" y="407" width="9" height="9" transform="rotate(0,366.5,411.5)"/><circle cx="366.5" cy="438.5" r="4.5" transform="rotate(0,366.5,438.5)"/><path d="M 371 38v 9h 4.5a 4.5 4.5, 0, 0, 0, 0 -9" transform="rotate(180,375.5,42.5)"/><path d="M 371 74v 9h 9v -4.5a 4.5 4.5, 0, 0, 0, -4.5 -4.5" transform="rotate(0,375.5,78.5)"/><rect x="371" y="83" width="9" height="9" transform="rotate(0,375.5,87.5)"/><path d="M 371 92v 9h 9v -4.5a 4.5 4.5, 0, 0, 0, -4.5 -4.5" transform="rotate(90,375.5,96.5)"/><path d="M 371 110v 9h 4.5a 4.5 4.5, 0, 0, 0, 0 -9" transform="rotate(0,375.5,114.5)"/><path d="M 371 128v 9h 4.5a 4.5 4.5, 0, 0, 0, 0 -9" transform="rotate(-90,375.5,132.5)"/><path d="M 371 137v 9h 4.5a 4.5 4.5, 0, 0, 0, 0 -9" transform="rotate(90,375.5,141.5)"/><path d="M 371 155v 9h 4.5a 4.5 4.5, 0, 0, 0, 0 -9" transform="rotate(-90,375.5,159.5)"/><path d="M 371 164v 9h 4.5a 4.5 4.5, 0, 0, 0, 0 -9" transform="rotate(90,375.5,168.5)"/><path d="M 371 182v 9h 4.5a 4.5 4.5, 0, 0, 0, 0 -9" transform="rotate(-90,375.5,186.5)"/><path d="M 371 191v 9h 9v -4.5a 4.5 4.5, 0, 0, 0, -4.5 -4.5" transform="rotate(90,375.5,195.5)"/><path d="M 371 236v 9h 4.5a 4.5 4.5, 0, 0, 0, 0 -9" transform="rotate(180,375.5,240.5)"/><circle cx="375.5" cy="258.5" r="4.5" transform="rotate(0,375.5,258.5)"/><path d="M 371 272v 9h 4.5a 4.5 4.5, 0, 0, 0, 0 -9" transform="rotate(-90,375.5,276.5)"/><path d="M 371 281v 9h 9v -4.5a 4.5 4.5, 0, 0, 0, -4.5 -4.5" transform="rotate(180,375.5,285.5)"/><circle cx="375.5" cy="339.5" r="4.5" transform="rotate(0,375.5,339.5)"/><path d="M 371 353v 9h 4.5a 4.5 4.5, 0, 0, 0, 0 -9" transform="rotate(-90,375.5,357.5)"/><path d="M 371 362v 9h 9v -4.5a 4.5 4.5, 0, 0, 0, -4.5 -4.5" transform="rotate(90,375.5,366.5)"/><path d="M 371 389v 9h 4.5a 4.5 4.5, 0, 0, 0, 0 -9" transform="rotate(-90,375.5,393.5)"/><rect x="371" y="398" width="9" height="9" transform="rotate(0,375.5,402.5)"/><path d="M 371 407v 9h 9v -4.5a 4.5 4.5, 0, 0, 0, -4.5 -4.5" transform="rotate(90,375.5,411.5)"/><path d="M 371 452v 9h 9v -4.5a 4.5 4.5, 0, 0, 0, -4.5 -4.5" transform="rotate(-90,375.5,456.5)"/><path d="M 371 461v 9h 9v -4.5a 4.5 4.5, 0, 0, 0, -4.5 -4.5" transform="rotate(180,375.5,465.5)"/><rect x="380" y="38" width="9" height="9" transform="rotate(0,384.5,42.5)"/><rect x="380" y="47" width="9" height="9" transform="rotate(0,384.5,51.5)"/><path d="M 380 56v 9h 4.5a 4.5 4.5, 0, 0, 0, 0 -9" transform="rotate(90,384.5,60.5)"/><path d="M 380 101v 9h 4.5a 4.5 4.5, 0, 0, 0, 0 -9" transform="rotate(180,384.5,105.5)"/><path d="M 380 200v 9h 4.5a 4.5 4.5, 0, 0, 0, 0 -9" transform="rotate(180,384.5,204.5)"/><rect x="380" y="236" width="9" height="9" transform="rotate(0,384.5,240.5)"/><path d="M 380 245v 9h 9v -4.5a 4.5 4.5, 0, 0, 0, -4.5 -4.5" transform="rotate(180,384.5,249.5)"/><path d="M 380 281v 9h 4.5a 4.5 4.5, 0, 0, 0, 0 -9" transform="rotate(0,384.5,285.5)"/><path d="M 380 299v 9h 4.5a 4.5 4.5, 0, 0, 0, 0 -9" transform="rotate(180,384.5,303.5)"/><circle cx="384.5" cy="330.5" r="4.5" transform="rotate(0,384.5,330.5)"/><path d="M 380 416v 9h 4.5a 4.5 4.5, 0, 0, 0, 0 -9" transform="rotate(180,384.5,420.5)"/><circle cx="384.5" cy="438.5" r="4.5" transform="rotate(0,384.5,438.5)"/><rect x="380" y="452" width="9" height="9" transform="rotate(0,384.5,456.5)"/><rect x="380" y="461" width="9" height="9" transform="rotate(0,384.5,465.5)"/><path d="M 389 29v 9h 4.5a 4.5 4.5, 0, 0, 0, 0 -9" transform="rotate(-90,393.5,33.5)"/><rect x="389" y="38" width="9" height="9" transform="rotate(0,393.5,42.5)"/><path d="M 389 47v 9h 9v -4.5a 4.5 4.5, 0, 0, 0, -4.5 -4.5" transform="rotate(90,393.5,51.5)"/><path d="M 389 83v 9h 4.5a 4.5 4.5, 0, 0, 0, 0 -9" transform="rotate(-90,393.5,87.5)"/><rect x="389" y="92" width="9" height="9" transform="rotate(0,393.5,96.5)"/><rect x="389" y="101" width="9" height="9" transform="rotate(0,393.5,105.5)"/><path d="M 389 110v 9h 9v -4.5a 4.5 4.5, 0, 0, 0, -4.5 -4.5" transform="rotate(180,393.5,114.5)"/><path d="M 389 128v 9h 9v -4.5a 4.5 4.5, 0, 0, 0, -4.5 -4.5" transform="rotate(-90,393.5,132.5)"/><path d="M 389 137v 9h 4.5a 4.5 4.5, 0, 0, 0, 0 -9" transform="rotate(90,393.5,141.5)"/><path d="M 389 155v 9h 4.5a 4.5 4.5, 0, 0, 0, 0 -9" transform="rotate(180,393.5,159.5)"/><path d="M 389 182v 9h 9v -4.5a 4.5 4.5, 0, 0, 0, -4.5 -4.5" transform="rotate(-90,393.5,186.5)"/><rect x="389" y="191" width="9" height="9" transform="rotate(0,393.5,195.5)"/><rect x="389" y="200" width="9" height="9" transform="rotate(0,393.5,204.5)"/><rect x="389" y="209" width="9" height="9" transform="rotate(0,393.5,213.5)"/><rect x="389" y="218" width="9" height="9" transform="rotate(0,393.5,222.5)"/><rect x="389" y="227" width="9" height="9" transform="rotate(0,393.5,231.5)"/><rect x="389" y="236" width="9" height="9" transform="rotate(0,393.5,240.5)"/><rect x="389" y="245" width="9" height="9" transform="rotate(0,393.5,249.5)"/><rect x="389" y="254" width="9" height="9" transform="rotate(0,393.5,258.5)"/><rect x="389" y="263" width="9" height="9" transform="rotate(0,393.5,267.5)"/><path d="M 389 272v 9h 4.5a 4.5 4.5, 0, 0, 0, 0 -9" transform="rotate(90,393.5,276.5)"/><path d="M 389 290v 9h 4.5a 4.5 4.5, 0, 0, 0, 0 -9" transform="rotate(-90,393.5,294.5)"/><rect x="389" y="299" width="9" height="9" transform="rotate(0,393.5,303.5)"/><path d="M 389 308v 9h 9v -4.5a 4.5 4.5, 0, 0, 0, -4.5 -4.5" transform="rotate(180,393.5,312.5)"/><path d="M 389 344v 9h 4.5a 4.5 4.5, 0, 0, 0, 0 -9" transform="rotate(-90,393.5,348.5)"/><rect x="389" y="353" width="9" height="9" transform="rotate(0,393.5,357.5)"/><path d="M 389 362v 9h 4.5a 4.5 4.5, 0, 0, 0, 0 -9" transform="rotate(90,393.5,366.5)"/><path d="M 389 380v 9h 4.5a 4.5 4.5, 0, 0, 0, 0 -9" transform="rotate(-90,393.5,384.5)"/><rect x="389" y="389" width="9" height="9" transform="rotate(0,393.5,393.5)"/><rect x="389" y="398" width="9" height="9" transform="rotate(0,393.5,402.5)"/><rect x="389" y="407" width="9" height="9" transform="rotate(0,393.5,411.5)"/><rect x="389" y="416" width="9" height="9" transform="rotate(0,393.5,420.5)"/><path d="M 389 425v 9h 9v -4.5a 4.5 4.5, 0, 0, 0, -4.5 -4.5" transform="rotate(180,393.5,429.5)"/><path d="M 389 452v 9h 9v -4.5a 4.5 4.5, 0, 0, 0, -4.5 -4.5" transform="rotate(0,393.5,456.5)"/><path d="M 389 461v 9h 9v -4.5a 4.5 4.5, 0, 0, 0, -4.5 -4.5" transform="rotate(90,393.5,465.5)"/><rect x="398" y="101" width="9" height="9" transform="rotate(0,402.5,105.5)"/><path d="M 398 110v 9h 9v -4.5a 4.5 4.5, 0, 0, 0, -4.5 -4.5" transform="rotate(90,402.5,114.5)"/><rect x="398" y="128" width="9" height="9" transform="rotate(0,402.5,132.5)"/><path d="M 398 146v 9h 4.5a 4.5 4.5, 0, 0, 0, 0 -9" transform="rotate(-90,402.5,150.5)"/><rect x="398" y="155" width="9" height="9" transform="rotate(0,402.5,159.5)"/><rect x="398" y="182" width="9" height="9" transform="rotate(0,402.5,186.5)"/><rect x="398" y="209" width="9" height="9" transform="rotate(0,402.5,213.5)"/><rect x="398" y="218" width="9" height="9" transform="rotate(0,402.5,222.5)"/><rect x="398" y="227" width="9" height="9" transform="rotate(0,402.5,231.5)"/><rect x="398" y="263" width="9" height="9" transform="rotate(0,402.5,267.5)"/><rect x="398" y="299" width="9" height="9" transform="rotate(0,402.5,303.5)"/><rect x="398" y="308" width="9" height="9" transform="rotate(0,402.5,312.5)"/><rect x="398" y="317" width="9" height="9" transform="rotate(0,402.5,321.5)"/><path d="M 398 326v 9h 4.5a 4.5 4.5, 0, 0, 0, 0 -9" transform="rotate(90,402.5,330.5)"/><path d="M 398 353v 9h 4.5a 4.5 4.5, 0, 0, 0, 0 -9" transform="rotate(0,402.5,357.5)"/><rect x="398" y="389" width="9" height="9" transform="rotate(0,402.5,393.5)"/><rect x="398" y="425" width="9" height="9" transform="rotate(0,402.5,429.5)"/><rect x="407" y="101" width="9" height="9" transform="rotate(0,411.5,105.5)"/><path d="M 407 119v 9h 9v -4.5a 4.5 4.5, 0, 0, 0, -4.5 -4.5" transform="rotate(-90,411.5,123.5)"/><rect x="407" y="128" width="9" height="9" transform="rotate(0,411.5,132.5)"/><path d="M 407 137v 9h 9v -4.5a 4.5 4.5, 0, 0, 0, -4.5 -4.5" transform="rotate(180,411.5,141.5)"/><path d="M 407 155v 9h 4.5a 4.5 4.5, 0, 0, 0, 0 -9" transform="rotate(0,411.5,159.5)"/><path d="M 407 182v 9h 9v -4.5a 4.5 4.5, 0, 0, 0, -4.5 -4.5" transform="rotate(0,411.5,186.5)"/><rect x="407" y="191" width="9" height="9" transform="rotate(0,411.5,195.5)"/><rect x="407" y="200" width="9" height="9" transform="rotate(0,411.5,204.5)"/><rect x="407" y="209" width="9" height="9" transform="rotate(0,411.5,213.5)"/><rect x="407" y="227" width="9" height="9" transform="rotate(0,411.5,231.5)"/><circle cx="411.5" cy="249.5" r="4.5" transform="rotate(0,411.5,249.5)"/><rect x="407" y="263" width="9" height="9" transform="rotate(0,411.5,267.5)"/><path d="M 407 290v 9h 4.5a 4.5 4.5, 0, 0, 0, 0 -9" transform="rotate(-90,411.5,294.5)"/><rect x="407" y="299" width="9" height="9" transform="rotate(0,411.5,303.5)"/><rect x="407" y="308" width="9" height="9" transform="rotate(0,411.5,312.5)"/><rect x="407" y="317" width="9" height="9" transform="rotate(0,411.5,321.5)"/><circle cx="411.5" cy="348.5" r="4.5" transform="rotate(0,411.5,348.5)"/><path d="M 407 362v 9h 4.5a 4.5 4.5, 0, 0, 0, 0 -9" transform="rotate(180,411.5,366.5)"/><rect x="407" y="389" width="9" height="9" transform="rotate(0,411.5,393.5)"/><circle cx="411.5" cy="411.5" r="4.5" transform="rotate(0,411.5,411.5)"/><rect x="407" y="425" width="9" height="9" transform="rotate(0,411.5,429.5)"/><path d="M 407 434v 9h 4.5a 4.5 4.5, 0, 0, 0, 0 -9" transform="rotate(90,411.5,438.5)"/><path d="M 407 452v 9h 9v -4.5a 4.5 4.5, 0, 0, 0, -4.5 -4.5" transform="rotate(-90,411.5,456.5)"/><path d="M 407 461v 9h 4.5a 4.5 4.5, 0, 0, 0, 0 -9" transform="rotate(90,411.5,465.5)"/><rect x="416" y="101" width="9" height="9" transform="rotate(0,420.5,105.5)"/><rect x="416" y="110" width="9" height="9" transform="rotate(0,420.5,114.5)"/><rect x="416" y="119" width="9" height="9" transform="rotate(0,420.5,123.5)"/><path d="M 416 137v 9h 4.5a 4.5 4.5, 0, 0, 0, 0 -9" transform="rotate(0,420.5,141.5)"/><path d="M 416 173v 9h 4.5a 4.5 4.5, 0, 0, 0, 0 -9" transform="rotate(180,420.5,177.5)"/><rect x="416" y="191" width="9" height="9" transform="rotate(0,420.5,195.5)"/><rect x="416" y="200" width="9" height="9" transform="rotate(0,420.5,204.5)"/><rect x="416" y="209" width="9" height="9" transform="rotate(0,420.5,213.5)"/><rect x="416" y="218" width="9" height="9" transform="rotate(0,420.5,222.5)"/><rect x="416" y="227" width="9" height="9" transform="rotate(0,420.5,231.5)"/><rect x="416" y="263" width="9" height="9" transform="rotate(0,420.5,267.5)"/><circle cx="420.5" cy="285.5" r="4.5" transform="rotate(0,420.5,285.5)"/><path d="M 416 299v 9h 9v -4.5a 4.5 4.5, 0, 0, 0, -4.5 -4.5" transform="rotate(0,420.5,303.5)"/><rect x="416" y="308" width="9" height="9" transform="rotate(0,420.5,312.5)"/><rect x="416" y="317" width="9" height="9" transform="rotate(0,420.5,321.5)"/><rect x="416" y="326" width="9" height="9" transform="rotate(0,420.5,330.5)"/><path d="M 416 335v 9h 4.5a 4.5 4.5, 0, 0, 0, 0 -9" transform="rotate(90,420.5,339.5)"/><rect x="416" y="362" width="9" height="9" transform="rotate(0,420.5,366.5)"/><rect x="416" y="371" width="9" height="9" transform="rotate(0,420.5,375.5)"/><rect x="416" y="380" width="9" height="9" transform="rotate(0,420.5,384.5)"/><rect x="416" y="389" width="9" height="9" transform="rotate(0,420.5,393.5)"/><rect x="416" y="425" width="9" height="9" transform="rotate(0,420.5,429.5)"/><rect x="416" y="452" width="9" height="9" transform="rotate(0,420.5,456.5)"/><rect x="425" y="101" width="9" height="9" transform="rotate(0,429.5,105.5)"/><rect x="425" y="110" width="9" height="9" transform="rotate(0,429.5,114.5)"/><rect x="425" y="119" width="9" height="9" transform="rotate(0,429.5,123.5)"/><path d="M 425 128v 9h 9v -4.5a 4.5 4.5, 0, 0, 0, -4.5 -4.5" transform="rotate(180,429.5,132.5)"/><path d="M 425 146v 9h 4.5a 4.5 4.5, 0, 0, 0, 0 -9" transform="rotate(180,429.5,150.5)"/><rect x="425" y="173" width="9" height="9" transform="rotate(0,429.5,177.5)"/><path d="M 425 191v 9h 9v -4.5a 4.5 4.5, 0, 0, 0, -4.5 -4.5" transform="rotate(0,429.5,195.5)"/><path d="M 425 200v 9h 9v -4.5a 4.5 4.5, 0, 0, 0, -4.5 -4.5" transform="rotate(90,429.5,204.5)"/><path d="M 425 218v 9h 9v -4.5a 4.5 4.5, 0, 0, 0, -4.5 -4.5" transform="rotate(0,429.5,222.5)"/><rect x="425" y="227" width="9" height="9" transform="rotate(0,429.5,231.5)"/><rect x="425" y="236" width="9" height="9" transform="rotate(0,429.5,240.5)"/><rect x="425" y="245" width="9" height="9" transform="rotate(0,429.5,249.5)"/><rect x="425" y="254" width="9" height="9" transform="rotate(0,429.5,258.5)"/><path d="M 425 263v 9h 9v -4.5a 4.5 4.5, 0, 0, 0, -4.5 -4.5" transform="rotate(90,429.5,267.5)"/><path d="M 425 290v 9h 4.5a 4.5 4.5, 0, 0, 0, 0 -9" transform="rotate(180,429.5,294.5)"/><rect x="425" y="308" width="9" height="9" transform="rotate(0,429.5,312.5)"/><path d="M 425 326v 9h 4.5a 4.5 4.5, 0, 0, 0, 0 -9" transform="rotate(0,429.5,330.5)"/><path d="M 425 344v 9h 4.5a 4.5 4.5, 0, 0, 0, 0 -9" transform="rotate(-90,429.5,348.5)"/><rect x="425" y="353" width="9" height="9" transform="rotate(0,429.5,357.5)"/><rect x="425" y="362" width="9" height="9" transform="rotate(0,429.5,366.5)"/><rect x="425" y="371" width="9" height="9" transform="rotate(0,429.5,375.5)"/><rect x="425" y="380" width="9" height="9" transform="rotate(0,429.5,384.5)"/><rect x="425" y="389" width="9" height="9" transform="rotate(0,429.5,393.5)"/><rect x="425" y="398" width="9" height="9" transform="rotate(0,429.5,402.5)"/><rect x="425" y="407" width="9" height="9" transform="rotate(0,429.5,411.5)"/><rect x="425" y="416" width="9" height="9" transform="rotate(0,429.5,420.5)"/><rect x="425" y="425" width="9" height="9" transform="rotate(0,429.5,429.5)"/><path d="M 425 443v 9h 9v -4.5a 4.5 4.5, 0, 0, 0, -4.5 -4.5" transform="rotate(-90,429.5,447.5)"/><rect x="425" y="452" width="9" height="9" transform="rotate(0,429.5,456.5)"/><rect x="434" y="101" width="9" height="9" transform="rotate(0,438.5,105.5)"/><path d="M 434 128v 9h 9v -4.5a 4.5 4.5, 0, 0, 0, -4.5 -4.5" transform="rotate(0,438.5,132.5)"/><rect x="434" y="137" width="9" height="9" transform="rotate(0,438.5,141.5)"/><rect x="434" y="146" width="9" height="9" transform="rotate(0,438.5,150.5)"/><path d="M 434 155v 9h 4.5a 4.5 4.5, 0, 0, 0, 0 -9" transform="rotate(90,438.5,159.5)"/><rect x="434" y="173" width="9" height="9" transform="rotate(0,438.5,177.5)"/><rect x="434" y="254" width="9" height="9" transform="rotate(0,438.5,258.5)"/><path d="M 434 290v 9h 9v -4.5a 4.5 4.5, 0, 0, 0, -4.5 -4.5" transform="rotate(0,438.5,294.5)"/><rect x="434" y="299" width="9" height="9" transform="rotate(0,438.5,303.5)"/><rect x="434" y="308" width="9" height="9" transform="rotate(0,438.5,312.5)"/><path d="M 434 353v 9h 9v -4.5a 4.5 4.5, 0, 0, 0, -4.5 -4.5" transform="rotate(0,438.5,357.5)"/><path d="M 434 362v 9h 9v -4.5a 4.5 4.5, 0, 0, 0, -4.5 -4.5" transform="rotate(90,438.5,366.5)"/><path d="M 434 380v 9h 4.5a 4.5 4.5, 0, 0, 0, 0 -9" transform="rotate(0,438.5,384.5)"/><path d="M 434 407v 9h 4.5a 4.5 4.5, 0, 0, 0, 0 -9" transform="rotate(0,438.5,411.5)"/><path d="M 434 425v 9h 9v -4.5a 4.5 4.5, 0, 0, 0, -4.5 -4.5" transform="rotate(0,438.5,429.5)"/><rect x="434" y="434" width="9" height="9" transform="rotate(0,438.5,438.5)"/><rect x="434" y="443" width="9" height="9" transform="rotate(0,438.5,447.5)"/><rect x="434" y="452" width="9" height="9" transform="rotate(0,438.5,456.5)"/><path d="M 434 461v 9h 9v -4.5a 4.5 4.5, 0, 0, 0, -4.5 -4.5" transform="rotate(180,438.5,465.5)"/><rect x="443" y="101" width="9" height="9" transform="rotate(0,447.5,105.5)"/><path d="M 443 110v 9h 4.5a 4.5 4.5, 0, 0, 0, 0 -9" transform="rotate(90,447.5,114.5)"/><path d="M 443 137v 9h 9v -4.5a 4.5 4.5, 0, 0, 0, -4.5 -4.5" transform="rotate(0,447.5,141.5)"/><path d="M 443 146v 9h 9v -4.5a 4.5 4.5, 0, 0, 0, -4.5 -4.5" transform="rotate(90,447.5,150.5)"/><path d="M 443 173v 9h 4.5a 4.5 4.5, 0, 0, 0, 0 -9" transform="rotate(0,447.5,177.5)"/><rect x="443" y="254" width="9" height="9" transform="rotate(0,447.5,258.5)"/><circle cx="447.5" cy="276.5" r="4.5" transform="rotate(0,447.5,276.5)"/><rect x="443" y="308" width="9" height="9" transform="rotate(0,447.5,312.5)"/><path d="M 443 335v 9h 9v -4.5a 4.5 4.5, 0, 0, 0, -4.5 -4.5" transform="rotate(-90,447.5,339.5)"/><path d="M 443 344v 9h 4.5a 4.5 4.5, 0, 0, 0, 0 -9" transform="rotate(90,447.5,348.5)"/><path d="M 443 371v 9h 4.5a 4.5 4.5, 0, 0, 0, 0 -9" transform="rotate(180,447.5,375.5)"/><path d="M 443 389v 9h 9v -4.5a 4.5 4.5, 0, 0, 0, -4.5 -4.5" transform="rotate(-90,447.5,393.5)"/><path d="M 443 398v 9h 9v -4.5a 4.5 4.5, 0, 0, 0, -4.5 -4.5" transform="rotate(180,447.5,402.5)"/><circle cx="447.5" cy="420.5" r="4.5" transform="rotate(0,447.5,420.5)"/><path d="M 443 434v 9h 9v -4.5a 4.5 4.5, 0, 0, 0, -4.5 -4.5" transform="rotate(0,447.5,438.5)"/><rect x="443" y="443" width="9" height="9" transform="rotate(0,447.5,447.5)"/><rect x="443" y="452" width="9" height="9" transform="rotate(0,447.5,456.5)"/><rect x="443" y="461" width="9" height="9" transform="rotate(0,447.5,465.5)"/><path d="M 452 101v 9h 4.5a 4.5 4.5, 0, 0, 0, 0 -9" transform="rotate(0,456.5,105.5)"/><path d="M 452 164v 9h 4.5a 4.5 4.5, 0, 0, 0, 0 -9" transform="rotate(180,456.5,168.5)"/><path d="M 452 182v 9h 4.5a 4.5 4.5, 0, 0, 0, 0 -9" transform="rotate(180,456.5,186.5)"/><path d="M 452 236v 9h 4.5a 4.5 4.5, 0, 0, 0, 0 -9" transform="rotate(180,456.5,240.5)"/><path d="M 452 254v 9h 9v -4.5a 4.5 4.5, 0, 0, 0, -4.5 -4.5" transform="rotate(0,456.5,258.5)"/><path d="M 452 263v 9h 9v -4.5a 4.5 4.5, 0, 0, 0, -4.5 -4.5" transform="rotate(180,456.5,267.5)"/><circle cx="456.5" cy="285.5" r="4.5" transform="rotate(0,456.5,285.5)"/><path d="M 452 299v 9h 9v -4.5a 4.5 4.5, 0, 0, 0, -4.5 -4.5" transform="rotate(-90,456.5,303.5)"/><rect x="452" y="308" width="9" height="9" transform="rotate(0,456.5,312.5)"/><path d="M 452 317v 9h 4.5a 4.5 4.5, 0, 0, 0, 0 -9" transform="rotate(90,456.5,321.5)"/><path d="M 452 335v 9h 4.5a 4.5 4.5, 0, 0, 0, 0 -9" transform="rotate(0,456.5,339.5)"/><path d="M 452 362v 9h 4.5a 4.5 4.5, 0, 0, 0, 0 -9" transform="rotate(-90,456.5,366.5)"/><rect x="452" y="371" width="9" height="9" transform="rotate(0,456.5,375.5)"/><rect x="452" y="380" width="9" height="9" transform="rotate(0,456.5,384.5)"/><rect x="452" y="389" width="9" height="9" transform="rotate(0,456.5,393.5)"/><rect x="452" y="398" width="9" height="9" transform="rotate(0,456.5,402.5)"/><path d="M 452 407v 9h 4.5a 4.5 4.5, 0, 0, 0, 0 -9" transform="rotate(90,456.5,411.5)"/><rect x="452" y="461" width="9" height="9" transform="rotate(0,456.5,465.5)"/><path d="M 461 110v 9h 4.5a 4.5 4.5, 0, 0, 0, 0 -9" transform="rotate(-90,465.5,114.5)"/><path d="M 461 119v 9h 4.5a 4.5 4.5, 0, 0, 0, 0 -9" transform="rotate(90,465.5,123.5)"/><circle cx="465.5" cy="141.5" r="4.5" transform="rotate(0,465.5,141.5)"/><path d="M 461 164v 9h 4.5a 4.5 4.5, 0, 0, 0, 0 -9" transform="rotate(0,465.5,168.5)"/><path d="M 461 182v 9h 4.5a 4.5 4.5, 0, 0, 0, 0 -9" transform="rotate(0,465.5,186.5)"/><path d="M 461 200v 9h 4.5a 4.5 4.5, 0, 0, 0, 0 -9" transform="rotate(-90,465.5,204.5)"/><path d="M 461 209v 9h 4.5a 4.5 4.5, 0, 0, 0, 0 -9" transform="rotate(90,465.5,213.5)"/><path d="M 461 236v 9h 9v -4.5a 4.5 4.5, 0, 0, 0, -4.5 -4.5" transform="rotate(0,465.5,240.5)"/><path d="M 461 245v 9h 4.5a 4.5 4.5, 0, 0, 0, 0 -9" transform="rotate(90,465.5,249.5)"/><path d="M 461 263v 9h 4.5a 4.5 4.5, 0, 0, 0, 0 -9" transform="rotate(0,465.5,267.5)"/><path d="M 461 290v 9h 4.5a 4.5 4.5, 0, 0, 0, 0 -9" transform="rotate(-90,465.5,294.5)"/><path d="M 461 299v 9h 9v -4.5a 4.5 4.5, 0, 0, 0, -4.5 -4.5" transform="rotate(90,465.5,303.5)"/><circle cx="465.5" cy="357.5" r="4.5" transform="rotate(0,465.5,357.5)"/><path d="M 461 371v 9h 4.5a 4.5 4.5, 0, 0, 0, 0 -9" transform="rotate(0,465.5,375.5)"/><path d="M 461 389v 9h 4.5a 4.5 4.5, 0, 0, 0, 0 -9" transform="rotate(0,465.5,393.5)"/><path d="M 461 425v 9h 4.5a 4.5 4.5, 0, 0, 0, 0 -9" transform="rotate(-90,465.5,429.5)"/><rect x="461" y="434" width="9" height="9" transform="rotate(0,465.5,438.5)"/><rect x="461" y="443" width="9" height="9" transform="rotate(0,465.5,447.5)"/><rect x="461" y="452" width="9" height="9" transform="rotate(0,465.5,456.5)"/><path d="M 461 461v 9h 9v -4.5a 4.5 4.5, 0, 0, 0, -4.5 -4.5" transform="rotate(90,465.5,465.5)"/><path clip-rule="evenodd" d="M 29 51.5v 18a 22.5 22.5, 0, 0, 0, 22.5 22.5h 18a 22.5 22.5, 0, 0, 0, 22.5 -22.5v -18a 22.5 22.5, 0, 0, 0, -22.5 -22.5h -18a 22.5 22.5, 0, 0, 0, -22.5 22.5M 51.5 38h 18a 13.5 13.5, 0, 0, 1, 13.5 13.5v 18a 13.5 13.5, 0, 0, 1, -13.5 13.5h -18a 13.5 13.5, 0, 0, 1, -13.5 -13.5v -18a 13.5 13.5, 0, 0, 1, 13.5 -13.5" transform="rotate(0,60.5,60.5)"/><circle cx="60.5" cy="60.5" r="13.5" transform="rotate(0,60.5,60.5)"/><path clip-rule="evenodd" d="M 407 51.5v 18a 22.5 22.5, 0, 0, 0, 22.5 22.5h 18a 22.5 22.5, 0, 0, 0, 22.5 -22.5v -18a 22.5 22.5, 0, 0, 0, -22.5 -22.5h -18a 22.5 22.5, 0, 0, 0, -22.5 22.5M 429.5 38h 18a 13.5 13.5, 0, 0, 1, 13.5 13.5v 18a 13.5 13.5, 0, 0, 1, -13.5 13.5h -18a 13.5 13.5, 0, 0, 1, -13.5 -13.5v -18a 13.5 13.5, 0, 0, 1, 13.5 -13.5" transform="rotate(90,438.5,60.5)"/><circle cx="438.5" cy="60.5" r="13.5" transform="rotate(90,438.5,60.5)"/><path clip-rule="evenodd" d="M 29 429.5v 18a 22.5 22.5, 0, 0, 0, 22.5 22.5h 18a 22.5 22.5, 0, 0, 0, 22.5 -22.5v -18a 22.5 22.5, 0, 0, 0, -22.5 -22.5h -18a 22.5 22.5, 0, 0, 0, -22.5 22.5M 51.5 416h 18a 13.5 13.5, 0, 0, 1, 13.5 13.5v 18a 13.5 13.5, 0, 0, 1, -13.5 13.5h -18a 13.5 13.5, 0, 0, 1, -13.5 -13.5v -18a 13.5 13.5, 0, 0, 1, 13.5 -13.5" transform="rotate(-90,60.5,438.5)"/><circle cx="60.5" cy="438.5" r="13.5" transform="rotate(-90,60.5,438.5)"/></clipPath></defs><rect x="0" y="0" height="500" width="500" clip-path="url('#clip-path-background-color')" fill="#fff"/><rect x="0" y="0" height="500" width="500" clip-path="url('#clip-path-dot-color')" fill="#000000"/></svg>